<svg xmlns="http://www.w3.org/2000/svg" fill="none" viewBox="0 0 128 128" class="design-iconfont" width="128" height="128">
  <path d="M11.2996 59.9692C10.4558 61.6699 10.4558 63.6673 11.2996 65.3681C21.142 86.7539 42.0314 100.919 65.5415 102.148L15.9393 52.4614C14.2266 54.8574 12.6766 57.3657 11.2996 59.9692ZM124.929 59.1256C118.94 49.4245 101.056 23.4424 68.3252 23.4424C56.5406 23.375 45.0015 26.8103 35.1728 33.3122L23.194 21.3335L13.6617 30.8659L24.7125 41.9167L39.6437 57.101L74.2302 91.4345L83.2564 100.545L98.272 115.561L107.804 106.028L97.091 95.3149C109.147 88.8254 118.945 78.8221 125.182 66.6334C126.395 64.254 126.3 61.4179 124.929 59.1256ZM87.0525 85.2765L77.4358 75.5754C84.4218 70.4482 85.9288 60.6284 80.8016 53.6425C75.6745 46.6564 65.8547 45.1495 58.8687 50.2766C57.5821 51.2209 56.4471 52.3559 55.5029 53.6425L45.8861 44.0257C56.1893 31.5678 74.6409 29.8211 87.0987 40.1243C99.5566 50.4274 101.303 68.879 91.0001 81.3368C89.8126 82.7727 88.4908 84.0919 87.0525 85.2765Z" fill="#333"></path>
</svg>