<svg xmlns="http://www.w3.org/2000/svg" fill="none" viewBox="0 0 12 12" class="design-iconfont" width="128" height="128">
  <path opacity=".01" fill="#000" d="M0 0H12V12H0z"></path>
  <path fill-rule="evenodd" clip-rule="evenodd" d="M1.5 2.25H10.5C10.9125 2.25 11.25 2.5875 11.25 3V8.25C11.25 8.6625 10.9125 9 10.5 9H7.5L6 9.75L4.5 9H1.5C1.0875 9 0.75 8.6625 0.75 8.25V3C0.75 2.5875 1.0875 2.25 1.5 2.25ZM3.49336 7.125C3.68555 7.125 3.78633 7.03008 3.79688 6.83789H3.79805V4.50586C3.78633 4.32539 3.69609 4.2293 3.52617 4.21875H2.95078C2.77031 4.23047 2.67422 4.3207 2.66367 4.49062C2.67422 4.67109 2.76914 4.76719 2.95078 4.77773H3.18984V6.83789C3.20039 7.02891 3.30117 7.125 3.49336 7.125ZM6.57539 7.125H5.18086C4.97578 7.125 4.87266 7.03359 4.87266 6.84961C4.87266 6.78516 4.89961 6.71484 4.95352 6.63867C5.00742 6.57422 5.09414 6.47695 5.21367 6.34688C5.56992 5.95781 5.83008 5.64375 5.9918 5.40586C6.08906 5.26523 6.13711 5.13633 6.13711 5.0168C6.11484 4.82227 6.01758 4.71445 5.84531 4.69219C5.67188 4.69219 5.54766 4.81172 5.47266 5.04961C5.4082 5.25469 5.31563 5.35781 5.19727 5.35781C5.00273 5.34727 4.89961 5.25 4.88906 5.06602C4.95352 4.50352 5.27813 4.19062 5.86172 4.125C6.44531 4.15781 6.75352 4.44375 6.78633 4.98398C6.78633 5.27578 6.54258 5.70352 6.05625 6.26484C5.95944 6.37874 5.88493 6.46803 5.83146 6.5321L5.83144 6.53212L5.79727 6.57305H6.54375C6.75938 6.57305 6.86836 6.66445 6.86836 6.84844C6.86719 7.02187 6.76992 7.11445 6.57539 7.125ZM7.62891 6.375C7.71445 6.83672 8.04727 7.08281 8.62617 7.11562C9.25898 7.07227 9.60234 6.77812 9.65625 6.22969C9.6457 5.90742 9.4793 5.66602 9.15703 5.50547C9.38203 5.35547 9.49453 5.1457 9.49453 4.87734C9.43008 4.40625 9.13477 4.1543 8.60977 4.12148C8.09531 4.17539 7.8 4.39453 7.725 4.78125C7.73555 4.97461 7.82227 5.07656 7.98281 5.08711C8.06953 5.08711 8.15508 5.02852 8.24062 4.91016C8.33789 4.76016 8.46094 4.68516 8.61094 4.68516C8.79258 4.6957 8.88984 4.78711 8.90039 4.9582C8.90039 5.11875 8.8043 5.2207 8.61094 5.26406C8.41758 5.31797 8.32148 5.41406 8.32148 5.55352C8.32148 5.70352 8.4293 5.79961 8.64375 5.84297C8.8582 5.82188 8.98125 5.93906 9.01406 6.19688C8.9918 6.43359 8.86289 6.5625 8.62734 6.58359C8.45508 6.58359 8.31094 6.4875 8.19258 6.29414C8.10703 6.16523 8.02617 6.10078 7.95117 6.10078C7.75781 6.12305 7.65 6.21445 7.62891 6.375Z" fill="#333"></path>
</svg>