<svg xmlns="http://www.w3.org/2000/svg" fill="none" viewBox="0 0 24 24" class="design-iconfont" width="128"
  height="128">
  <path
    d="M6.00781 9.95594C4.62919 10.2529 3.62891 11.4736 3.62891 12.9023V18.9539C3.62891 20.6178 4.97599 21.9648 6.63984 21.9648H17.3555C19.0193 21.9648 20.3664 20.6178 20.3664 18.9539V12.9C20.3664 11.4708 19.3654 10.2494 17.9875 9.95518V7.55625C17.9875 4.49559 15.5061 2.01172 12.443 2.01172H11.5547C10.0821 2.01172 8.6732 2.5959 7.6326 3.6365C6.59196 4.67715 6.00781 6.0884 6.00781 7.55859V9.95594ZM11.6102 16.3992V16.2285L11.4512 16.1664C10.7776 15.903 10.3861 15.1974 10.5206 14.4888L10.5208 14.488C10.6533 13.777 11.274 13.2625 11.9977 13.2625C12.7208 13.2625 13.3399 13.7766 13.4747 14.4887L13.4747 14.4888C13.6092 15.1974 13.2177 15.903 12.5441 16.1664L12.3852 16.2285V16.3992V18.2039C12.3852 18.4174 12.2111 18.5914 11.9977 18.5914C11.7842 18.5914 11.6102 18.4174 11.6102 18.2039V16.3992ZM14.9844 7.83281V9.89141H9.01094V7.83516C9.01094 6.18471 10.3477 4.84609 11.9977 4.84609C13.6479 4.84609 14.9844 6.1826 14.9844 7.83281Z"
    fill="#333" stroke="#333" stroke-width=".5"></path>
</svg>