<svg xmlns="http://www.w3.org/2000/svg" fill="none" viewBox="0 0 12 12" class="design-iconfont" width="128" height="128">
  <path opacity=".01" fill="#000" d="M0 0H12V12H0z"></path>
  <path opacity=".5" fill-rule="evenodd" clip-rule="evenodd" d="M3.23038 3.60118C3.23038 3.24379 3.27953 2.89788 3.37144 2.56982C2.38423 2.8783 1.66852 3.79181 1.66852 4.87075C1.66852 5.56715 1.96666 6.19461 2.44354 6.63496C2.81457 6.20322 3.301 5.87352 3.85496 5.69363C3.46009 5.09281 3.23038 4.37382 3.23038 3.60118ZM1.68602 8.68014C1.68602 8.10976 1.83813 7.5749 2.10401 7.11392H1.91617C0.929098 7.11392 0.128906 7.91411 0.128906 8.9012V11.0924H1.68602V8.68014Z" fill="#333"></path>
  <path fill-rule="evenodd" clip-rule="evenodd" d="M7.04702 6.33413C5.51175 6.33413 4.26716 5.10244 4.26716 3.58308C4.26716 2.06372 5.51175 0.832031 7.04702 0.832031C8.58229 0.832031 9.82687 2.06372 9.82687 3.58308C9.82687 5.10244 8.58229 6.33413 7.04702 6.33413ZM9.80007 6.59699H9.41405C8.76494 7.11011 7.94475 7.41641 7.053 7.41641C6.16233 7.41641 5.34306 7.11083 4.69432 6.59884C3.59354 6.64515 2.71533 7.55222 2.71533 8.66439V11.168H11.8675V8.66439C11.8675 7.52259 10.9419 6.59699 9.80007 6.59699Z" fill="#333"></path>
</svg>