<svg xmlns="http://www.w3.org/2000/svg" fill="none" viewBox="0 0 128 128" class="design-iconfont" width="128" height="128">
  <path d="M124.903 70.7301C124.903 80.9908 103.106 103.222 71.8322 103.222C41.5061 103.222 18.7615 81.5609 18.7615 70.7301C18.7615 59.8993 41.5061 38.2378 71.8322 38.2378C103.296 38.2378 124.903 59.8993 124.903 70.7301ZM71.8322 44.1283C57.8064 44.1283 46.2446 55.9092 46.2446 70.5401C46.2446 85.1715 57.6169 96.9519 71.8322 96.9519C85.8581 96.9519 97.4199 85.171 97.4199 70.5396C97.4199 55.9092 86.0476 44.1283 71.8322 44.1283ZM71.8322 53.8188C62.9239 53.8188 55.5319 61.4196 55.5319 70.7301C55.5319 80.0406 62.7344 87.6409 71.8322 87.6409C80.9301 87.6409 88.1326 80.0406 88.1326 70.7301C88.1326 61.4196 80.7406 53.8188 71.8322 53.8188Z" fill="#333"></path>
</svg>