<svg xmlns="http://www.w3.org/2000/svg" fill="none" viewBox="0 0 20 20" class="design-iconfont" width="128" height="128">
  <path d="M19.4737 3.16667C19.6133 3.16667 19.7471 3.22227 19.8458 3.32125C19.9445 3.42023 20 3.55447 20 3.69444V4.75C20 4.88998 19.9445 5.02422 19.8458 5.1232C19.7471 5.22217 19.6133 5.27778 19.4737 5.27778H17.3684V16.8889C17.3684 18.0648 16.3579 18.9451 15.1647 18.9974L15.0526 19H4.94737C3.74421 19 2.69684 18.1556 2.63474 16.9981L2.63158 16.8889V5.27778H0.526316C0.386728 5.27778 0.252858 5.22217 0.154154 5.1232C0.055451 5.02422 0 4.88998 0 4.75V3.69444C0 3.55447 0.055451 3.42023 0.154154 3.32125C0.252858 3.22227 0.386728 3.16667 0.526316 3.16667H19.4737ZM15.2632 5.27778H4.73684V16.8303L4.75789 16.8451C4.79938 16.8673 4.8448 16.8811 4.89158 16.8857L4.94737 16.8889H15.0526C15.1185 16.8905 15.1836 16.8754 15.2421 16.8451L15.2632 16.8298V5.27778ZM8.42105 7.91667C8.56064 7.91667 8.69451 7.97227 8.79321 8.07125C8.89192 8.17023 8.94737 8.30447 8.94737 8.44444V13.7222C8.94737 13.8622 8.89192 13.9964 8.79321 14.0954C8.69451 14.1944 8.56064 14.25 8.42105 14.25H7.36842C7.22883 14.25 7.09496 14.1944 6.99626 14.0954C6.89756 13.9964 6.84211 13.8622 6.84211 13.7222V8.44444C6.84211 8.30447 6.89756 8.17023 6.99626 8.07125C7.09496 7.97227 7.22883 7.91667 7.36842 7.91667H8.42105ZM12.6316 7.91667C12.7712 7.91667 12.905 7.97227 13.0037 8.07125C13.1024 8.17023 13.1579 8.30447 13.1579 8.44444V13.7222C13.1579 13.8622 13.1024 13.9964 13.0037 14.0954C12.905 14.1944 12.7712 14.25 12.6316 14.25H11.5789C11.4394 14.25 11.3055 14.1944 11.2068 14.0954C11.1081 13.9964 11.0526 13.8622 11.0526 13.7222V8.44444C11.0526 8.30447 11.1081 8.17023 11.2068 8.07125C11.3055 7.97227 11.4394 7.91667 11.5789 7.91667H12.6316ZM12.6316 0C12.7007 0 12.7691 0.0136513 12.833 0.0401746C12.8968 0.066698 12.9549 0.105574 13.0037 0.154582C13.0526 0.203591 13.0914 0.261773 13.1178 0.325806C13.1443 0.389839 13.1579 0.458469 13.1579 0.527778V1.58333C13.1579 1.72331 13.1024 1.85755 13.0037 1.95653C12.905 2.05551 12.7712 2.11111 12.6316 2.11111H7.36842C7.22883 2.11111 7.09496 2.05551 6.99626 1.95653C6.89756 1.85755 6.84211 1.72331 6.84211 1.58333V0.527778C6.84211 0.458469 6.85572 0.389839 6.88217 0.325806C6.90862 0.261773 6.94739 0.203591 6.99626 0.154582C7.04513 0.105574 7.10315 0.066698 7.16701 0.0401746C7.23087 0.0136513 7.29931 0 7.36842 0H12.6316Z" fill="#999"></path>
</svg>