<svg xmlns="http://www.w3.org/2000/svg"  viewBox="0 0 30 30" class="design-iconfont" width="128" height="128">
  <path d="M15 2.97566C16.5309 2.97566 17.9679 3.57329 19.0494 4.65003C20.1309 5.7317 20.7235 7.16899 20.7235 8.70012C20.7235 10.2313 20.1259 11.6685 19.0494 12.7502C17.9679 13.8319 16.5309 14.4246 15 14.4246C13.4691 14.4246 12.0321 13.827 10.9506 12.7502C9.86913 11.6685 9.27654 10.2313 9.27654 8.70012C9.27654 7.16899 9.87407 5.7317 10.9506 4.65003C12.0321 3.57329 13.4691 2.97566 15 2.97566ZM15 1C10.7481 1 7.30123 4.44752 7.30123 8.70012C7.30123 12.9527 10.7481 16.4002 15 16.4002C19.2519 16.4002 22.6988 12.9527 22.6988 8.70012C22.6988 4.44752 19.2519 1 15 1ZM23.8444 20.6775C25.5926 20.6775 27.0198 22.1 27.0198 23.8534C27.0198 25.6019 25.5975 27.0293 23.8444 27.0293H6.15062C4.40247 27.0293 2.97531 25.6068 2.97531 23.8534C2.97531 22.105 4.39753 20.6775 6.15062 20.6775H23.8444ZM23.8444 18.7019H6.15062C3.30617 18.7019 1 21.0035 1 23.8485C1 26.6934 3.30617 29 6.15062 29H23.8494C26.6938 29 29 26.6934 29 23.8485C28.9951 21.0035 26.6889 18.7019 23.8444 18.7019Z"   stroke-width=".5"></path>
</svg>