<svg xmlns="http://www.w3.org/2000/svg"  viewBox="0 0 32 32" class="design-iconfont" width="128" height="128">
  <g clip-path="url(#81ivzxbth__clip0_55_1405)" >
    <path d="M20.1982 25.9786C20.2515 25.8223 20.3435 25.682 20.4656 25.5709C20.5878 25.4597 20.7361 25.3813 20.8967 25.343C27.5468 23.5826 31.6053 19.1539 31.759 13.4679C31.9895 5.9586 27.3442 0.824361 19.6603 0.0769281C14.547 -0.412047 8.58853 1.39716 6.87013 6.44757C6.74055 6.85105 6.64475 7.26462 6.58373 7.68398C6.56592 8.02631 6.4548 8.35726 6.26241 8.64097C6.05983 8.78766 4.551 9.5351 1.24692 11.1697C1.11309 11.241 0.996333 11.3405 0.90471 11.4613C0.813086 11.5821 0.748782 11.7214 0.716238 11.8695C0.683694 12.0176 0.683686 12.1711 0.716214 12.3192C0.748742 12.4673 0.81303 12.6066 0.90464 12.7274L1.60318 13.6145C1.86163 13.9429 2.08517 14.2293 2.20392 14.3829C2.63002 14.9697 2.20392 15.9267 1.42854 17.4425C0.653168 18.9583 0.031471 20.2367 0.289929 21.2356C0.70905 23.1286 1.90355 23.3731 3.91533 23.7503C4.32746 23.8341 4.76754 23.9249 5.22858 24.0367C9.48964 25.0775 10.4327 26.0066 12.4375 31.1268C12.5486 31.3705 12.7489 31.5623 12.9971 31.6629C13.2453 31.7635 13.5226 31.7653 13.772 31.6678C14.0215 31.5704 14.2241 31.3811 14.3384 31.1389C14.4526 30.8967 14.4698 30.6199 14.3864 30.3654C12.1371 24.6235 10.6841 23.2194 5.72454 21.983C5.23556 21.8642 4.76754 21.7665 4.32746 21.6687C2.44142 21.3473 2.42745 21.2984 2.30171 20.7745C2.50881 19.9312 2.8358 19.122 3.27268 18.3716C4.1179 16.7021 5.0749 14.816 3.87342 13.1465C3.76864 12.9998 3.57305 12.7484 3.32856 12.448C7.44293 10.4153 7.46389 10.3524 7.78522 10.038C8.27122 9.46333 8.57088 8.75436 8.64441 8.0053C8.69014 7.70441 8.76023 7.40772 8.85397 7.11817C9.24345 5.99994 9.9408 5.01444 10.8658 4.27513C11.1522 9.07406 12.0603 10.6528 16.5938 12.7134L17.1037 12.937C18.0677 13.3561 20.0794 14.2362 20.0794 15.1234C20.0794 16.0105 19.7372 16.3458 18.8919 17.1282L18.5776 17.4076C18.1076 17.7306 17.7068 18.1441 17.3985 18.6238C17.0903 19.1036 16.8808 19.64 16.7824 20.2017V20.3414C16.5002 22.9838 16.9853 25.6514 18.1794 28.0253C18.7387 29.2954 19.4877 30.473 20.4008 31.518C20.5749 31.7348 20.828 31.8735 21.1044 31.9036C21.3809 31.9337 21.6579 31.8528 21.8747 31.6787C22.0914 31.5045 22.2301 31.2514 22.2603 30.975C22.2904 30.6986 22.2095 30.4215 22.0353 30.2048C19.6743 27.2709 19.9397 26.5584 20.1144 26.1393L20.1982 25.9786ZM19.0107 24.0716C18.7674 22.9239 18.7131 21.7442 18.85 20.5789V20.4113C18.8989 19.9083 19.3111 19.5172 19.9258 19.0142L20.289 18.6929C21.2041 17.8477 22.1541 16.9815 22.1541 15.1513C22.1541 12.8951 19.6114 11.7774 17.921 11.0439L17.446 10.8344C13.5831 9.07406 13.0941 8.34759 12.8915 3.08063C14.9729 2.24477 17.2271 1.93062 19.4577 2.16555C26.0519 2.79423 29.8659 6.98544 29.6913 13.4329C29.5656 18.1131 26.0868 21.8153 20.3868 23.3102C19.8695 23.4448 19.3941 23.7065 19.0037 24.0716H19.0107Z"></path>
    <path d="M15.8184 14.1524C15.6858 14.1105 15.5463 14.0953 15.4078 14.1078C15.2694 14.1202 15.1348 14.1602 15.0119 14.2252C14.8891 14.2902 14.7804 14.379 14.6921 14.4864C14.6039 14.5939 14.538 14.7178 14.4981 14.851C14.1349 15.9756 12.9893 17.1911 11.2709 18.2808C11.1544 18.3542 11.0535 18.4498 10.9739 18.5622C10.8944 18.6745 10.8378 18.8015 10.8073 18.9358C10.7768 19.07 10.773 19.209 10.7963 19.3447C10.8195 19.4804 10.8692 19.6102 10.9426 19.7267C11.016 19.8432 11.1116 19.9441 11.224 20.0237C11.3364 20.1032 11.4633 20.1599 11.5976 20.1904C11.7318 20.2209 11.8708 20.2246 12.0065 20.2014C12.1422 20.1782 12.2721 20.1284 12.3886 20.0551C13.8974 19.0981 15.8393 17.5333 16.489 15.4936C16.5347 15.3616 16.5536 15.2218 16.5446 15.0824C16.5355 14.9429 16.4986 14.8067 16.4362 14.6818C16.3737 14.5568 16.2868 14.4456 16.1807 14.3547C16.0746 14.2638 15.9514 14.195 15.8184 14.1524Z"></path>
  </g>
  <defs>
    <clipPath id="81ivzxbth__clip0_55_1405">
      <path  d="M0 0H32V32H0z"></path>
    </clipPath>
  </defs>
</svg>