<svg xmlns="http://www.w3.org/2000/svg"  viewBox="0 0 30 30" class="design-iconfont" width="128" height="128">
  <path d="M14.9984 29H14.9922C11.2518 28.9969 7.73652 27.5396 5.09383 24.8941C2.45114 22.2486 0.996878 18.7337 1.00001 14.9937C1.00313 11.2537 2.46052 7.73889 5.10634 5.09649C7.74902 2.4541 11.2643 1 15.0016 1H15.0078C22.7295 1.00313 29.0062 7.28858 29 15.0063C28.9937 22.7239 22.7138 29 14.9984 29ZM14.9953 3.80188C12.0055 3.80188 9.1939 4.96516 7.07975 7.07907C4.96247 9.19299 3.79594 12.0042 3.79594 14.9969C3.79281 17.9895 4.95622 20.8008 7.07037 22.9178C9.18452 25.0348 11.9961 26.2013 14.9891 26.2013H14.9953C21.1689 26.2013 26.1915 21.1823 26.1947 15.0094C26.1978 8.83337 21.1751 3.80813 14.9984 3.805C15.0016 3.80188 14.9984 3.80188 14.9953 3.80188Z" ></path>
  <path d="M9.39031 14.3848C8.62378 14.3848 8 13.7398 8 12.9472V10.4345C8 9.64182 8.62067 9 9.39031 9C10.1568 9 10.7806 9.64503 10.7775 10.4377V12.9504C10.7775 13.743 10.1568 14.3848 9.39031 14.3848ZM19.6128 14.3913C18.8463 14.3913 18.2225 13.7462 18.2225 12.9536V10.4409C18.2225 9.64823 18.8432 9.00642 19.6128 9.00642C20.3793 9.00642 21.0031 9.65144 21 10.4441V12.9568C21.0031 13.7462 20.3824 14.3913 19.6128 14.3913ZM14.5605 22C12.8568 22 11.2554 21.1656 9.92098 19.5932C9.41513 18.9963 9.4741 18.0881 10.0513 17.565C10.6285 17.042 11.5068 17.1029 12.0126 17.6998C12.565 18.3513 13.4526 19.1279 14.5605 19.1279C15.6684 19.1279 16.5591 18.3513 17.1084 17.703C17.6142 17.1061 18.4925 17.0484 19.0697 17.5715C19.6469 18.0945 19.7028 19.0027 19.1969 19.5996C17.8625 21.1688 16.258 22 14.5605 22Z" ></path>
</svg>