<svg xmlns="http://www.w3.org/2000/svg" viewBox="0 0 40 40" class="design-iconfont" width="128" height="128">
  <path d="M28.5323379,15.3639515 L28.5323379,12.0711078 L28.5323379,12.0711078 C28.5323379,5.40442035 23.1279176,-1.03028697e-13 16.4612301,-1.03028697e-13 C9.7945427,-1.03028697e-13 4.39012235,5.40442035 4.39012235,12.0711078 L4.39012235,15.3629632 L4.39012243,15.3629632 C1.96844774,15.3700148 0.00703139139,17.3314186 8.38440428e-13,19.7530855 L8.38440428e-13,35.1170487 L8.38440428e-13,35.1170061 C0.00757028225,37.5382941 1.96879526,39.4991206 4.39008323,39.5061909 L28.5323379,39.5061909 L28.5323379,39.5061909 C30.9532431,39.4986001 32.9139055,37.5379543 32.9214838,35.1170452 L32.9214838,19.753082 L32.9214838,19.7531216 C32.9139148,17.3322164 30.9532862,15.371554 28.5323771,15.3639368 L28.5323379,15.3639515 Z M6.58461739,12.0711078 L6.58461739,12.0711273 C6.6381697,6.63877727 11.0288408,2.24806904 16.4611909,2.1944636 L16.4611914,2.1944636 C21.8929165,2.17159547 26.3147966,6.55623811 26.3378142,11.9879632 C26.3378142,12.015676 26.3378142,12.043389 26.3378142,12.071102 L26.3378142,15.3629573 L6.58461739,15.3629573 L6.58461739,12.0711078 Z M30.7269108,35.1160565 L30.7269109,35.1160579 C30.7955133,36.2594811 29.924199,37.2420252 28.7807719,37.3106268 C28.6980351,37.3155908 28.6150748,37.3155908 28.5323376,37.3106266 L4.39008298,37.3106266 L4.39008289,37.3106267 C3.24665969,37.3792299 2.26411557,36.5079148 2.19551393,35.3644916 C2.1905499,35.2817548 2.1905499,35.1987945 2.19551394,35.1160573 L2.19551394,19.7530707 L2.19551386,19.7530693 C2.12691144,18.6096461 2.99822573,17.627102 4.14165284,17.5585003 C4.22438966,17.5535363 4.30734991,17.5535364 4.39008712,17.5585005 L28.5323418,17.5585005 L28.5323417,17.5585005 C29.6757649,17.4898973 30.658309,18.3612124 30.7269106,19.5046356 C30.7318747,19.5873724 30.7318747,19.6703327 30.7269107,19.7530699 L30.7269107,35.1170331 L30.7269108,35.1160565 Z M16.4612301,19.7530574 L16.46123,19.7530574 C13.4611679,19.7467091 11.0239971,22.1735844 11.0176175,25.1736621 C11.0121473,27.7595284 12.8302687,29.9908161 15.3639631,30.5076527 L15.3639631,34.0197544 L15.3639631,34.0197546 C15.3639632,34.625767 15.8552332,35.117041 16.4612495,35.117041 C17.067262,35.117041 17.558536,34.6257709 17.558536,34.0197546 L17.558536,30.5076528 L17.5585362,30.5076528 C20.4980631,29.9079997 22.394909,27.0389261 21.7952599,24.0994031 C21.278396,21.5657127 19.04712,19.7476012 16.4612693,19.7530574 L16.4612301,19.7530574 Z M16.4612301,28.5323384 L16.46123,28.5323384 C14.6431888,28.5323384 13.1693746,27.0585237 13.1693746,25.2404825 C13.1693746,23.4224413 14.6431888,21.9486271 16.46123,21.9486271 C18.2792712,21.9486271 19.7530855,23.4224413 19.7530855,25.2404825 C19.7530855,25.2404825 19.7530855,25.2404825 19.7530855,25.2404825 L19.7530855,25.2404791 C19.7088686,27.0398874 18.2606423,28.4881196 16.461234,28.5323384 L16.4612301,28.5323384 Z" transform="translate(3)" fill="#333" fill-rule="nonzero"></path>
</svg>