<svg xmlns="http://www.w3.org/2000/svg" fill="none" viewBox="0 0 16 16" class="design-iconfont" width="128" height="128">
  <g clip-path="url(#vn38foln8__clip0_58_1909)" fill="#3F73F6">
    <path d="M12.8421 16H3.15789C2.32071 15.9989 1.51814 15.6658 0.926156 15.0738C0.334177 14.4819 0.00111402 13.6793 0 12.8421V3.15789C0.00111402 2.32071 0.334177 1.51814 0.926156 0.926156C1.51814 0.334177 2.32071 0.00111402 3.15789 0H8C8.16751 2.49602e-09 8.32815 0.0665411 8.44659 0.184985C8.56504 0.303429 8.63158 0.464074 8.63158 0.631579C8.63158 0.799084 8.56504 0.959729 8.44659 1.07817C8.32815 1.19662 8.16751 1.26316 8 1.26316H3.15789C2.65572 1.26427 2.17443 1.46425 1.81934 1.81934C1.46425 2.17443 1.26427 2.65572 1.26316 3.15789V12.8421C1.26427 13.3443 1.46425 13.8256 1.81934 14.1807C2.17443 14.5357 2.65572 14.7357 3.15789 14.7368H12.8421C13.3443 14.7357 13.8256 14.5357 14.1807 14.1807C14.5357 13.8256 14.7357 13.3443 14.7368 12.8421V8C14.7368 7.83249 14.8034 7.67185 14.9218 7.55341C15.0403 7.43496 15.2009 7.36842 15.3684 7.36842C15.5359 7.36842 15.6966 7.43496 15.815 7.55341C15.9335 7.67185 16 7.83249 16 8V12.8421C15.9989 13.6793 15.6658 14.4819 15.0738 15.0738C14.4819 15.6658 13.6793 15.9989 12.8421 16Z"></path>
    <path d="M13.4813 1.36783L14.0481 1.93742L14.6188 2.50301L11.8455 5.27076L8.5297 8.57601L7.27973 8.69234L7.39629 7.44484L10.7081 4.13558L13.4813 1.36783ZM13.4813 2.5188e-07C13.3753 -8.36312e-05 13.2702 0.0207848 13.1723 0.0614029C13.0743 0.102021 12.9854 0.161585 12.9106 0.236663L9.85603 3.2852L6.34326 6.81909C6.27715 6.88469 6.23595 6.97119 6.22671 7.06378L6.00163 9.56277C5.99659 9.6184 6.00325 9.67447 6.02118 9.72738C6.03911 9.7803 6.06792 9.82889 6.10576 9.87005C6.14359 9.91121 6.18962 9.94403 6.2409 9.9664C6.29218 9.98878 6.34758 10.0002 6.40355 10H6.43972L8.94368 9.77537C9.03645 9.76614 9.12312 9.72502 9.18885 9.65904L12.7097 6.1452L15.7642 3.09667C15.839 3.02216 15.8983 2.93368 15.9387 2.83629C15.9792 2.7389 16 2.63451 16 2.52908C16 2.42365 15.9792 2.31926 15.9387 2.22187C15.8983 2.12448 15.839 2.036 15.7642 1.96149L14.9001 1.08704L14.0481 0.236663C13.898 0.0860058 13.6942 0.000895878 13.4813 2.5188e-07Z"></path>
  </g>
  <defs>
    <clipPath id="vn38foln8__clip0_58_1909">
      <path fill="#fff" d="M0 0H16V16H0z"></path>
    </clipPath>
  </defs>
</svg>