<svg xmlns="http://www.w3.org/2000/svg"  viewBox="0 0 30 30" class="design-iconfont" width="128" height="128">
  <path d="M18.3999 3.9C18.3999 4.66913 18.6545 5.40675 19.1077 5.95061C19.5609 6.49446 20.1756 6.8 20.8166 6.8C21.4575 6.8 22.0722 6.49446 22.5254 5.95061C22.9786 5.40675 23.2332 4.66913 23.2332 3.9C23.2332 3.13087 22.9786 2.39325 22.5254 1.84939C22.0722 1.30553 21.4575 1 20.8166 1C20.1756 1 19.5609 1.30553 19.1077 1.84939C18.6545 2.39325 18.3999 3.13087 18.3999 3.9Z" ></path>
  <path d="M8.06455 11.4374C9.39803 9.75121 10.5008 8.90818 11.373 8.90818H14.9349C13.6843 12.3498 12.5319 14.6806 11.4777 15.9007C9.89661 17.7308 9.09791 18.5863 6.48152 18.5863C4.73728 18.5863 3.21103 17.6911 1.9029 15.9007L1 17.2138C2.97913 19.6592 4.96246 21.049 6.94992 21.3833C10.2514 21.9385 12.0428 20.4556 13.6765 19.2577C14.9848 19.9291 18.8265 21.1995 18.499 23.8668C18.2806 25.6449 17.6676 27.6894 16.66 30.0002H18.9093C20.0924 28.1458 20.9019 25.8759 21.338 23.1903C21.774 20.5046 20.0812 18.1507 16.2595 16.1283L18.74 12.9138C19.5165 15.0593 20.5588 16.3559 21.8669 16.8035C23.1751 17.2511 25.2417 16.7264 28.0667 15.2293L27.4126 13.8865C25.1758 14.4633 23.6214 14.5279 22.7492 14.0803C21.4411 13.4089 21.7728 11.6667 20.7775 9.90129C19.6785 7.95203 18.9093 7.19036 17.7169 6.4624C16.5243 5.73438 11.8111 5.39644 9.84229 6.81316C8.52973 7.75767 7.52976 9.0889 6.84245 10.8069L8.06455 11.4374V11.4374Z" ></path>
</svg>