<svg xmlns="http://www.w3.org/2000/svg" viewBox="0 0 40 40" class="design-iconfont" width="128" height="128">
  <path d="M21.1694543,39.4824678 L4.25048926,39.4824678 C2.38117068,39.4824678 0.866336886,37.9676379 0.866336886,36.0981748 L0.866336886,3.94907491 C0.866336886,2.07975633 2.38116677,0.564922532 4.25048926,0.564922532 L21.1716808,0.564922532 C23.0411908,0.564922532 24.5558332,2.07975242 24.5558332,3.94907491 L24.5558332,36.0980967 C24.5536001,37.9676067 23.0387689,39.4824678 21.1694504,39.4824678 L21.1694504,39.4824678 L21.1694543,39.4824678 Z M22.8626476,3.94910616 C22.8626476,3.01553867 22.1052561,2.25814716 21.1716886,2.25814716 L4.25049707,2.25814716 C3.31692958,2.25814716 2.55953807,3.01553867 2.55953807,3.94910616 L2.55953807,6.48673411 L22.8648742,6.48673411 L22.8648742,3.94910616 L22.8626412,3.94910616 L22.8626476,3.94910616 Z M22.8626476,8.18012671 L2.55731151,8.18012671 L2.55731151,27.6387431 L22.8626476,27.6387431 L22.8626476,8.18012671 L22.8626476,8.18012671 Z M22.8626541,29.3297216 L2.55731151,29.3297216 L2.55731151,36.098167 C2.55731151,37.0316876 3.31470302,37.789126 4.24827051,37.789126 L21.1694621,37.789126 C22.1029827,37.789126 22.8604211,37.0317345 22.8604211,36.098167 L22.860421,29.3297216 L22.8626541,29.3297216 L22.8626541,29.3297216 Z M12.7100577,36.098167 C11.3073568,36.098167 10.1724297,34.9610094 10.1724297,33.5605391 C10.1724297,32.1579788 11.3095873,31.0229111 12.7100577,31.0229111 C14.1103835,31.0229111 15.2475411,32.1602601 15.2475411,33.5605391 C15.2475411,34.9610563 14.1126179,36.098167 12.7100577,36.098167 L12.7100577,36.098167 L12.7100577,36.098167 Z" transform="translate(8)" fill="#333" fill-rule="nonzero"></path>
</svg>