<svg xmlns="http://www.w3.org/2000/svg" fill="none" viewBox="0 0 16 16" class="design-iconfont" width="128" height="128">
  <g clip-path="url(#w757vhpvv__clip0_75_3304)" fill="#999">
    <path d="M9.06011 16H6.94025C6.26611 16 5.63367 15.5242 5.44078 14.8831C5.39116 14.7765 5.32159 14.6079 5.26892 14.4015C5.13912 14.502 5.01184 14.5949 4.86749 14.6668C4.53365 14.8342 4.32278 14.8342 4.07847 14.8342C3.70814 14.8342 3.35579 14.6697 3.03184 14.346L1.54819 12.8625C1.07539 12.3894 0.995034 11.7028 1.33336 11.0264L1.37543 10.9421L1.44212 10.8756C1.49354 10.8241 1.54837 10.7353 1.60608 10.639C1.58972 10.6359 1.57354 10.6332 1.5579 10.6304C1.47197 10.6145 1.365 10.5948 1.32258 10.5948L1.182 10.5773C0.508213 10.4091 0 9.75722 0 9.06009V6.94045C0 6.24421 0.508034 5.59184 1.18164 5.42322L1.32258 5.40578C1.36518 5.40578 1.47233 5.38619 1.55826 5.37019C1.56886 5.36821 1.57947 5.36641 1.59044 5.36443C1.49336 5.23824 1.40329 5.1142 1.33318 4.97398C0.994674 4.29733 1.07485 3.61098 1.54801 3.1382L3.09404 1.69467C3.34141 1.33261 3.81708 1.16633 4.18418 1.16633C4.32026 1.16633 4.63918 1.16633 4.97355 1.33333L5.05786 1.37522L5.12456 1.44209C5.19485 1.51238 5.27035 1.57027 5.3561 1.6348C5.36078 1.60838 5.36545 1.58303 5.36995 1.5584C5.38577 1.47229 5.40554 1.36497 5.40554 1.32255L5.42298 1.18161C5.59142 0.508022 6.24363 0 6.94025 0H9.06011C9.73407 0 10.3665 0.475844 10.5594 1.11689C10.609 1.2235 10.6786 1.39212 10.7314 1.59849C10.8609 1.49836 10.9878 1.40578 11.1316 1.33351C11.4671 1.16615 11.6778 1.16615 11.9219 1.16615C12.2928 1.16615 12.6447 1.3301 12.9683 1.65404L14.452 3.13802C14.9251 3.6108 15.0053 4.29716 14.6666 4.9738L14.6246 5.05811L14.5581 5.12462C14.5054 5.17748 14.4491 5.26934 14.3898 5.36839C14.4959 5.38924 14.5825 5.40542 14.6774 5.40542L14.8184 5.42286C15.492 5.59148 16 6.24385 16 6.94009V9.05973C16 9.75668 15.4918 10.4087 14.818 10.577L14.6774 10.5944C14.6352 10.5944 14.5279 10.614 14.4419 10.63C14.4313 10.632 14.4207 10.6338 14.4097 10.6361C14.4994 10.7526 14.5832 10.8675 14.6506 10.9951C14.9694 11.5049 14.9832 12.3304 14.452 12.8622L13.0187 14.2951C12.7733 14.6647 12.2922 14.834 11.9215 14.834C11.6409 14.834 11.2567 14.834 10.9806 14.5574C10.9254 14.5022 10.8265 14.4429 10.7219 14.3801C10.7113 14.374 10.7009 14.3677 10.6903 14.3612C10.6899 14.3632 10.6894 14.3654 10.689 14.3674C10.6619 14.5034 10.6311 14.657 10.5709 14.8414C10.3935 15.5037 9.74827 16 9.06011 16ZM5.7169 13.1633C5.72643 13.1663 5.73596 13.1694 5.74567 13.1728C5.8609 13.2109 6.03528 13.2692 6.18521 13.4196L6.35491 13.5897V13.8297C6.35491 14.0413 6.43275 14.2723 6.50556 14.4179L6.54943 14.5365C6.58916 14.6949 6.77522 14.8389 6.94025 14.8389H9.06011C9.22496 14.8389 9.41102 14.6949 9.45075 14.5365L9.46316 14.4937C9.50468 14.369 9.5259 14.2627 9.55071 14.1396C9.57893 13.999 9.61075 13.839 9.67529 13.6459L9.71843 13.5167L9.81479 13.42C9.9649 13.2692 10.1391 13.2113 10.2545 13.1728C10.264 13.1694 10.2734 13.1667 10.2829 13.1633L10.6496 12.7967L11.0601 13.2071C11.1154 13.2623 11.2145 13.3216 11.3191 13.3847C11.4487 13.4622 11.5933 13.5492 11.7297 13.669C11.8196 13.6761 11.9747 13.6799 12.0574 13.6371L12.0801 13.5915L13.6308 12.0415C13.7428 11.9294 13.7288 11.7048 13.6642 11.6079L13.6279 11.5455C13.5943 11.4783 13.5141 11.3755 13.4293 11.2665C13.3372 11.149 13.236 11.0187 13.1343 10.8658L12.8698 10.4698L13.1634 10.177C13.1664 10.1675 13.1695 10.1581 13.1727 10.1486C13.211 10.0333 13.2691 9.85897 13.4194 9.70941L13.5893 9.53971H13.8294C13.9515 9.53971 14.0939 9.51364 14.2316 9.48829C14.3501 9.46636 14.4635 9.44551 14.5775 9.43724C14.7186 9.37899 14.8387 9.21091 14.8387 9.06009V6.94045C14.8387 6.79125 14.7206 6.62442 14.5807 6.56474C14.4072 6.55647 14.2609 6.52699 14.1395 6.50272C14.0229 6.47971 13.9308 6.46119 13.8294 6.46119H13.5887L13.4187 6.29077C13.2689 6.14103 13.2112 5.96719 13.1727 5.85232C13.1695 5.84243 13.1664 5.83309 13.1632 5.82356L12.7967 5.45611L13.2069 5.04607C13.2623 4.99052 13.3216 4.89147 13.3845 4.78684C13.4602 4.66064 13.5441 4.52079 13.6594 4.38776C13.7784 4.10696 13.6765 4.00521 13.6308 3.95955L12.1468 2.47557C12.0377 2.36628 11.9573 2.32781 11.9215 2.32781C11.7403 2.32781 11.7403 2.32781 11.6508 2.37239C11.5843 2.40564 11.4816 2.48582 11.3732 2.57049C11.2553 2.66271 11.1246 2.76392 10.9716 2.86603L10.5758 3.13029L10.2829 2.83745C10.2734 2.83403 10.264 2.83133 10.2545 2.82792C10.1391 2.78945 9.96472 2.73156 9.81479 2.58074L9.64545 2.41104V2.17105C9.64545 1.95982 9.5676 1.72882 9.49462 1.58285L9.45075 1.4642C9.41102 1.30583 9.22496 1.16184 9.06011 1.16184H6.94025C6.7896 1.16184 6.62115 1.2821 6.56309 1.42304C6.55482 1.53719 6.53397 1.65026 6.51221 1.76855C6.48687 1.90643 6.4608 2.04899 6.4608 2.17105V2.52932L6.14045 2.69004C5.99699 2.76176 5.88679 2.79898 5.79816 2.82846C5.74171 2.84697 5.68473 2.86513 5.60958 2.90252L5.23512 3.08966L4.93957 2.79376C4.86281 2.717 4.77994 2.65462 4.68394 2.58289C4.59477 2.51602 4.49644 2.44232 4.39361 2.34938C4.31936 2.32817 4.2408 2.32817 4.18436 2.32817C4.14427 2.32817 4.08171 2.34668 4.04809 2.36412L4.02094 2.41859L2.35482 3.97393C2.32031 4.00917 2.20579 4.12314 2.3719 4.45553C2.40552 4.52276 2.4857 4.62523 2.57037 4.73363C2.66259 4.85156 2.76416 4.98225 2.86573 5.13505L3.1291 5.53036L2.8154 5.84513C2.81036 5.85753 2.80551 5.8712 2.80012 5.88558C2.77315 5.95623 2.74115 6.03874 2.6901 6.14067L2.52956 6.46155H2.17074C2.04831 6.46155 1.90558 6.48762 1.76769 6.51297C1.64958 6.53454 1.5365 6.55521 1.42271 6.56366C1.28141 6.6219 1.16132 6.79053 1.16132 6.94081V9.06045C1.16132 9.21127 1.28141 9.37953 1.42253 9.4376C1.53632 9.44587 1.64976 9.46672 1.76805 9.48865C1.90593 9.514 2.04849 9.54007 2.17074 9.54007H2.41091L2.5808 9.70977C2.73108 9.85987 2.78897 10.0337 2.82762 10.1489C2.83068 10.1585 2.83373 10.1682 2.83661 10.1777L3.20352 10.5442L2.79329 10.9547C2.73792 11.0098 2.67859 11.1089 2.61567 11.2135C2.53981 11.3397 2.45585 11.4799 2.3408 11.613C2.22161 11.8938 2.32372 11.9962 2.36938 12.0415L3.85286 13.525C3.96234 13.6343 4.04288 13.6731 4.07847 13.6731C4.25896 13.6731 4.25896 13.6731 4.34795 13.6285C4.4159 13.5945 4.51873 13.5144 4.62749 13.4293C4.74524 13.3375 4.87558 13.2363 5.02802 13.1345L5.4237 12.8706L5.7169 13.1633Z"></path>
    <path d="M8 11C6.37373 11 5 9.62607 5 7.99981C5 6.37373 6.37393 5 8 5C9.62607 5 11 6.37393 11 7.99981C11 9.62627 9.62626 11 8 11ZM8 6.24132C7.0631 6.24132 6.24132 7.06329 6.24132 7.99981C6.24132 8.9369 7.06329 9.75868 8 9.75868C8.93671 9.75868 9.75868 8.93671 9.75868 7.99981C9.75868 7.0631 8.9369 6.24132 8 6.24132Z"></path>
  </g>
  <defs>
    <clipPath id="w757vhpvv__clip0_75_3304">
      <path fill="#fff" d="M0 0H16V16H0z"></path>
    </clipPath>
  </defs>
</svg>