<svg xmlns="http://www.w3.org/2000/svg" fill="none" viewBox="0 0 142 142" class="design-iconfont" width="128" height="128">
  <path d="M142 132.77C142 131.35 142 125.67 138.45 119.28C136.32 115.02 132.77 112.18 128.51 109.34C123.54 106.5 117.15 103.66 109.34 102.24C108.63 102.24 103.66 101.53 99.4 100.11C94.43 98.69 92.3 97.98 91.59 97.27V93.01C92.3 83.78 97.27 78.81 101.53 74.55C102.95 73.13 104.37 71.71 105.79 69.58C110.76 62.48 111.47 55.38 111.47 53.96C111.47 52.54 111.47 51.83 110.76 50.41C110.05 48.99 109.34 47.57 108.63 46.86C108.63 44.73 109.34 42.6 109.34 41.18C109.34 37.63 110.05 31.95 108.63 26.27C108.63 25.56 108.63 24.14 107.92 22.72C106.5 18.46 105.08 14.91 102.24 12.07C100.82 12.07 90.88 2.13 63.9 0H53.25C51.83 0 50.41 -7.14138e-07 48.99 0.709999C44.02 2.13 43.31 5.68 42.6 7.1V11.36L41.89 12.07C41.18 12.78 34.08 19.17 33.37 27.69C32.66 33.37 32.66 41.89 33.37 48.28C32.66 49.7 31.24 51.12 31.24 54.67C31.24 56.09 31.95 63.19 36.92 69.58C38.34 71 39.05 72.42 41.18 74.55C45.44 79.52 50.41 84.49 51.12 93.01V97.27C49.7 97.98 47.57 99.4 42.6 100.82C37.63 102.24 32.66 102.95 31.95 102.95C24.85 104.37 18.46 106.5 13.49 109.34C9.23 112.18 5.68 115.73 3.55 119.28C-6.34789e-07 125.67 1.66406e-07 131.35 0 132.77V136.32C0 139.16 2.84 142 6.39 142H135.61C139.16 142 142 139.16 142 135.61V132.77Z" fill="#333"></path>
</svg>