<svg xmlns="http://www.w3.org/2000/svg" fill="none" viewBox="0 0 14 14" class="design-iconfont" width="128" height="128">
  <path fill-rule="evenodd" clip-rule="evenodd" d="M7 14C10.8664 14 14 10.8664 14 7C14 3.13359 10.8664 0 7 0C3.13359 0 0 3.13359 0 7C0 10.8664 3.13359 14 7 14ZM6.5625 3.0625C6.5625 2.82051 6.75801 2.625 7 2.625C7.24199 2.625 7.4375 2.82051 7.4375 3.0625C7.4375 3.30449 7.24199 3.5 7 3.5C6.75801 3.5 6.5625 3.30449 6.5625 3.0625ZM6.5625 4.8125C6.5625 4.57051 6.75801 4.375 7 4.375C7.24199 4.375 7.4375 4.57051 7.4375 4.8125V10.9375C7.4375 11.1795 7.24199 11.375 7 11.375C6.75801 11.375 6.5625 11.1795 6.5625 10.9375V4.8125Z" fill="#3453A2"></path>
</svg>