<svg xmlns="http://www.w3.org/2000/svg" fill="none" viewBox="0 0 16 16" class="design-iconfont" width="128" height="128">
  <g clip-path="url(#cfladvcjk__clip0_75_3309)" fill="#999">
    <path d="M14.96 11.2C14.608 11.2 14.32 11.488 14.32 11.84V13.28C14.32 13.808 13.888 14.24 13.36 14.24H2.71998C2.19198 14.24 1.75998 13.808 1.75998 13.28V2.64C1.75998 2.112 2.19198 1.68 2.71998 1.68H13.36C13.888 1.68 14.32 2.112 14.32 2.64V3.28C14.32 3.632 14.608 3.92 14.96 3.92C15.312 3.92 15.6 3.632 15.6 3.28V2.64C15.6 1.408 14.592 0.400002 13.36 0.400002H2.71998C1.48798 0.400002 0.47998 1.408 0.47998 2.64V13.28C0.47998 14.512 1.48798 15.52 2.71998 15.52H13.36C14.592 15.52 15.6 14.512 15.6 13.28V11.84C15.6 11.488 15.312 11.2 14.96 11.2Z"></path>
    <path d="M12.6239 9.896C12.7519 10.024 12.9119 10.08 13.0799 10.08C13.2479 10.08 13.4079 10.016 13.5359 9.896L15.4159 8.016L15.4239 8.008L15.4639 7.968C15.4719 7.96 15.4799 7.952 15.4799 7.944C15.4879 7.936 15.4959 7.928 15.4959 7.92C15.5039 7.912 15.5119 7.904 15.5119 7.888C15.5199 7.88 15.5199 7.872 15.5279 7.864C15.5359 7.856 15.5359 7.84 15.5439 7.832C15.5519 7.824 15.5519 7.816 15.5599 7.808C15.5679 7.8 15.5679 7.784 15.5679 7.776C15.5679 7.768 15.5759 7.76 15.5759 7.744C15.5759 7.736 15.5839 7.72 15.5839 7.712C15.5839 7.704 15.5919 7.696 15.5919 7.68C15.5919 7.664 15.5919 7.656 15.5999 7.64V7.616C15.6079 7.576 15.6079 7.528 15.5999 7.488V7.464C15.5999 7.448 15.5999 7.44 15.5919 7.424C15.5919 7.416 15.5839 7.408 15.5839 7.392C15.5839 7.384 15.5759 7.368 15.5759 7.36C15.5759 7.352 15.5679 7.344 15.5679 7.328C15.5679 7.32 15.5599 7.304 15.5599 7.296C15.5599 7.288 15.5519 7.28 15.5439 7.272C15.5359 7.264 15.5359 7.248 15.5279 7.24C15.5199 7.232 15.5199 7.224 15.5119 7.216C15.5039 7.208 15.5039 7.2 15.4959 7.184C15.4879 7.176 15.4799 7.168 15.4799 7.16C15.4719 7.152 15.4719 7.144 15.4639 7.136C15.4559 7.12 15.4399 7.104 15.4239 7.096L15.4159 7.088L13.5359 5.208C13.2879 4.96 12.8799 4.96 12.6319 5.208C12.3839 5.456 12.3839 5.864 12.6319 6.112L13.4159 6.896H8.0399C7.6879 6.896 7.3999 7.184 7.3999 7.536C7.3999 7.888 7.6879 8.176 8.0399 8.176H13.4159L12.6319 8.96C12.3759 9.24 12.3759 9.64 12.6239 9.896Z"></path>
  </g>
  <defs>
    <clipPath id="cfladvcjk__clip0_75_3309">
      <path fill="#fff" d="M0 0H16V16H0z"></path>
    </clipPath>
  </defs>
</svg>