<svg xmlns="http://www.w3.org/2000/svg" viewBox="0 0 36 36" class="design-iconfont" width="64" height="64">
  <defs>
    <linearGradient x1="-23.6959108%" y1="-21.9514053%" x2="88.4200255%" y2="75.2615789%" id="hm7i9ce4x__7riolvy4ra">
      <stop stop-color="#A2F27A" offset="0%"></stop>
      <stop stop-color="#53C41B" offset="100%"></stop>
    </linearGradient>
  </defs>
  <g fill="none" fill-rule="evenodd">
    <path d="M17.5,33 L17.5,33 C8.93958023,33 2,26.0604199 2,17.5 C2,8.93958008 8.93958023,2 17.5,2 L17.5,2 C26.0604198,2 33,8.93958008 33,17.5 C33,26.0604199 26.0604198,33 17.5,33 L17.5,33 Z" stroke="#E8FFDC" stroke-width="1.5" fill="url(#hm7i9ce4x__7riolvy4ra)" stroke-dasharray="0,0" transform="translate(1 1)"></path>
    <path d="M16.2287492,20.9556271 L12.4750001,17.156889 L10,19.5212623 C11.7999985,20.4906382 14.3218666,22.2587726 16.4818771,25 C18.0081271,22.1312397 22.7125079,16.2624948 25,15.7374949 C24.6306262,14.2581207 24.4225001,11.4812533 25,10 C20.3087621,13.0937566 16.2287595,20.9556296 16.2287595,20.9556296 L16.2287492,20.9556271 Z" fill="#FFF" transform="translate(1 1)"></path>
  </g>
</svg>