<svg xmlns="http://www.w3.org/2000/svg" viewBox="0 0 32 32" class="design-iconfont" width="128" height="128">
  <rect width="32" height="32" rx="4" fill="#2B2B2B"></rect>
  <path
    d="M15.7692 9.93291C15.7692 9.41794 16.1713 9 16.6667 9H18.4615C18.9569 9 19.359 9.41794 19.359 9.93291V11.7987C19.359 12.3137 18.9569 12.7316 18.4615 12.7316H16.6667C16.1713 12.7316 15.7692 12.3137 15.7692 11.7987V9.93291ZM15.7692 15.5304V17.3962C15.7692 17.9112 15.3672 18.3291 14.8718 18.3291H13.0769C12.5815 18.3291 12.1795 17.9112 12.1795 17.3962V15.5304C12.1795 15.0154 12.5815 14.5975 13.0769 14.5975H14.8718C15.3672 14.5975 15.7692 15.0154 15.7692 15.5304ZM10.3846 9.93291C10.3846 9.41794 10.7867 9 11.2821 9H13.0769C13.5723 9 13.9744 9.41794 13.9744 9.93291V11.7987C13.9744 12.3137 13.5723 12.7316 13.0769 12.7316H11.2821C10.7867 12.7316 10.3846 12.3137 10.3846 11.7987V9.93291ZM5 9.93291C5 9.41794 5.40205 9 5.89744 9H7.69231C8.18769 9 8.58974 9.41794 8.58974 9.93291V11.7987C8.58974 12.3137 8.18769 12.7316 7.69231 12.7316H5.89744C5.40205 12.7316 5 12.3137 5 11.7987V9.93291ZM8.58974 22.9937C8.58974 23.5086 8.18769 23.9266 7.69231 23.9266H5.89744C5.40205 23.9266 5 23.5086 5 22.9937V21.1278C5 20.6129 5.40205 20.1949 5.89744 20.1949H7.69231C8.18769 20.1949 8.58974 20.6129 8.58974 21.1278V22.9937ZM9.48718 18.3291H7.69231C7.19692 18.3291 6.79487 17.9112 6.79487 17.3962V15.5304C6.79487 15.0154 7.19692 14.5975 7.69231 14.5975H9.48718C9.98256 14.5975 10.3846 15.0154 10.3846 15.5304V17.3962C10.3846 17.9112 9.98256 18.3291 9.48718 18.3291ZM17.5641 22.9937C17.5641 23.5086 17.1621 23.9266 16.6667 23.9266H11.2821C10.7867 23.9266 10.3846 23.5086 10.3846 22.9937V21.1278C10.3846 20.6129 10.7867 20.1949 11.2821 20.1949H16.6667C17.1621 20.1949 17.5641 20.6129 17.5641 21.1278V22.9937ZM17.5641 17.3962V15.5304C17.5641 15.0154 17.9662 14.5975 18.4615 14.5975H20.2564C20.7518 14.5975 21.1538 15.0154 21.1538 15.5304V17.3962C21.1538 17.9112 20.7518 18.3291 20.2564 18.3291H18.4615C17.9662 18.3291 17.5641 17.9112 17.5641 17.3962ZM26.5385 22.9937C26.5385 23.5086 26.1364 23.9266 25.641 23.9266H20.2564C19.761 23.9266 19.359 23.5086 19.359 22.9937V21.1278C19.359 20.6129 19.761 20.1949 20.2564 20.1949H22.0513C22.5467 20.1949 22.9487 19.777 22.9487 19.262V15.5304C22.9487 15.0154 23.3508 14.5975 23.8462 14.5975H25.641C26.1364 14.5975 26.5385 15.0154 26.5385 15.5304V22.9937ZM26.5385 11.7987C26.5385 12.3137 26.1364 12.7316 25.641 12.7316H22.0513C21.5559 12.7316 21.1538 12.3137 21.1538 11.7987V9.93291C21.1538 9.41794 21.5559 9 22.0513 9H25.641C26.1364 9 26.5385 9.41794 26.5385 9.93291V11.7987Z">
  </path>
</svg>