<svg xmlns="http://www.w3.org/2000/svg" fill="none" viewBox="0 0 20 20" class="design-iconfont" width="128" height="128">
  <g clip-path="url(#lxvkv5cpa__clip0_58_1934)" fill="#999">
    <path d="M17.5002 3.33325H5.8335C4.4585 3.33325 3.3335 4.45825 3.3335 5.83325V17.4999C3.3335 18.8749 4.4585 19.9999 5.8335 19.9999H17.5002C18.8752 19.9999 20.0002 18.8749 20.0002 17.4999V5.83325C20.0002 4.45825 18.8752 3.33325 17.5002 3.33325ZM17.5002 4.99992C17.9518 4.99992 18.3335 5.38158 18.3335 5.83325V17.4999C18.3335 17.9516 17.9518 18.3333 17.5002 18.3333H5.8335C5.38183 18.3333 5.00016 17.9516 5.00016 17.4999V5.83325C5.00016 5.38158 5.38183 4.99992 5.8335 4.99992H17.5002Z"></path>
    <path d="M3.33333 15H2.5C2.04833 15 1.66667 14.6183 1.66667 14.1667V2.5C1.66667 2.04833 2.04833 1.66667 2.5 1.66667H14.1667C14.6183 1.66667 15 2.04833 15 2.5V3.33H16.6667V2.5C16.6667 1.125 15.5417 0 14.1667 0H2.5C1.125 0 0 1.125 0 2.5V14.1667C0 15.5417 1.125 16.6667 2.5 16.6667H3.33333V15Z"></path>
    <path d="M10.8335 15V8.33333C10.8335 7.875 11.2085 7.5 11.6668 7.5C12.1252 7.5 12.5002 7.875 12.5002 8.33333V15C12.5002 15.4583 12.1252 15.8333 11.6668 15.8333C11.2085 15.8333 10.8335 15.4583 10.8335 15Z"></path>
    <path d="M15 12.4999H8.33333C7.875 12.4999 7.5 12.1249 7.5 11.6666C7.5 11.2083 7.875 10.8333 8.33333 10.8333H15C15.4583 10.8333 15.8333 11.2083 15.8333 11.6666C15.8333 12.1249 15.4583 12.4999 15 12.4999Z"></path>
  </g>
  <defs>
    <clipPath id="lxvkv5cpa__clip0_58_1934">
      <path fill="#fff" d="M0 0H20V20H0z"></path>
    </clipPath>
  </defs>
</svg>