<svg xmlns="http://www.w3.org/2000/svg" viewBox="0 0 40 40" class="design-iconfont" width="128" height="128">
  <path d="M22.9660673,13.4399323 L28.5520113,13.4399323 C29.1249272,13.4399323 29.4113873,13.7263911 29.4113873,14.2993083 L29.4113873,14.2993083 C29.4113873,14.8722242 29.1249285,15.1586843 28.5520113,15.1586843 L22.9660673,15.1586843 C22.3931514,15.1586843 22.1066913,14.8722254 22.1066913,14.2993083 L22.1066913,14.2993083 C22.1066913,13.7263924 22.3931501,13.4399323 22.9660673,13.4399323 Z M22.9660673,19.3283766 L30.7004513,19.3283766 C31.2733672,19.3283766 31.5598273,19.6148354 31.5598273,20.1877526 L31.5598273,20.1877526 C31.5598273,20.7606685 31.2733685,21.0471286 30.7004513,21.0471286 L22.9660673,21.0471286 C22.3931514,21.0471286 22.1066913,20.7606698 22.1066913,20.1877526 L22.1066913,20.1877526 C22.1066913,19.6148367 22.3931501,19.3283766 22.9660673,19.3283766 Z M22.9660673,25.216821 L34.1379553,25.216821 C34.7108712,25.216821 34.9973313,25.5032798 34.9973313,26.076197 L34.9973313,26.076197 C34.9973313,26.6491129 34.7108725,26.935573 34.1379553,26.935573 L22.9660673,26.935573 C22.3931514,26.935573 22.1066913,26.6491141 22.1066913,26.076197 L22.1066913,26.076197 C22.1066913,25.5032811 22.3931501,25.216821 22.9660673,25.216821 Z M12.3772659,19.3481435 L12.3772657,19.3481435 C10.2414757,19.3481435 8.51007371,17.6167402 8.51007371,15.4809503 C8.51007371,13.3451603 10.2414757,11.6137583 12.3772657,11.6137583 C14.5130557,11.6137583 16.2444578,13.3451603 16.2444578,15.4809503 L16.2444578,15.4808828 C16.2421269,17.6156931 14.5121405,19.3457373 12.3773345,19.3481435 L12.3772659,19.3481435 Z M12.3772659,13.3325098 L12.3772658,13.3325098 C11.1907167,13.3325098 10.2288258,14.2944012 10.2288258,15.4809503 C10.2288258,16.6674993 11.1907167,17.6293903 12.3772658,17.6293903 C13.5638148,17.6293903 14.5257058,16.6674993 14.5257058,15.4809503 L14.5257058,15.4809541 C14.5242873,14.2949938 13.5632304,13.3339321 12.3772701,13.3325098 L12.3772659,13.3325098 Z M18.3928979,28.3844809 L6.36163388,28.3844809 L6.36163384,28.3844809 C5.88701336,28.3844809 5.50225784,27.9997249 5.50225784,27.5251049 C5.50225784,27.5251049 5.50225784,27.5251049 5.50225784,27.5251049 C5.50225784,23.7339677 8.58612861,20.6500969 12.3772658,20.6500969 C16.1684031,20.6500969 19.2522738,23.7339677 19.2522738,27.5251049 L19.2522738,27.5251049 C19.2522738,27.9997254 18.8675179,28.3844809 18.3928978,28.3844809 L18.3928979,28.3844809 Z M7.29231657,26.6657289 L17.461764,26.6657289 L17.461764,26.6657289 C16.9890298,23.85752 14.3292998,21.9642545 11.5210695,22.4369757 C9.35452248,22.8016928 7.65703574,24.4991816 7.29231657,26.6657289 L7.29231657,26.6657289 Z M35.2031518,6.718752 L35.2031519,6.718752 C36.6240829,6.72580451 37.7742288,7.87594961 37.78128,9.29688056 L37.78128,30.7013586 L37.78128,30.7013396 C37.7742385,32.1222706 36.6241002,33.2724251 35.2031692,33.2794848 L5.29688442,33.2794848 L5.29688432,33.2794848 C3.87576001,33.2728989 2.72534344,32.1224811 2.7187563,30.7013568 L2.7187563,9.2968788 L2.7187563,9.2968843 C2.7253392,7.87575999 3.87575569,6.72533912 5.29688,6.718752 L35.2031648,6.718752 M35.2031648,5 L5.29688,5 C2.933596,5 1,6.933596 1,9.29688 L1,30.701358 C1,33.064642 2.933596,34.998238 5.29688,34.998238 L35.2031648,34.998238 C37.5664488,34.998238 39.5000448,33.064642 39.5000448,30.701358 L39.5000448,9.29688 C39.5000448,6.933596 37.5664488,5 35.2031648,5 Z" fill="#333" fill-rule="nonzero"></path>
</svg>