<svg xmlns="http://www.w3.org/2000/svg" fill="none" viewBox="0 0 15 14" class="design-iconfont" width="128" height="119.46666666666667">
  <path fill-rule="evenodd" clip-rule="evenodd" d="M7.31787 0C3.45146 0 0.317871 3.13359 0.317871 7C0.317871 10.8664 3.45146 14 7.31787 14C11.1843 14 14.3179 10.8664 14.3179 7C14.3179 3.13359 11.1843 0 7.31787 0V0ZM10.8173 9.61543C10.993 9.78496 10.9958 10.0611 10.8243 10.2348C10.6514 10.407 10.3697 10.4098 10.1927 10.2416L7.45694 7.6125L4.72123 10.2402C4.54554 10.4098 4.26249 10.407 4.08959 10.2334C3.91669 10.0611 3.91948 9.78359 4.09656 9.61406L6.81973 7L4.09656 4.38457C3.92087 4.21504 3.91808 3.93887 4.08959 3.76523C4.26249 3.59297 4.54415 3.59023 4.72123 3.7584L7.45694 6.3875L10.1927 3.75977C10.3683 3.59023 10.6514 3.59297 10.8243 3.7666C10.9972 3.93887 10.9944 4.21641 10.8173 4.38594L8.09416 7L10.8173 9.61543Z" fill="#A12329"></path>
</svg>