<svg xmlns="http://www.w3.org/2000/svg" fill="none" viewBox="0 0 124 124" class="design-iconfont" width="128" height="128">
  <g clip-path="url(#a55wjm7ei__clip0_54_799)" fill="#999">
    <path d="M45.9834 12.9167C45.9834 14.6129 46.3175 16.2925 46.9666 17.8597C47.6157 19.4268 48.5672 20.8507 49.7666 22.0501C50.966 23.2496 52.3899 24.201 53.9571 24.8501C55.5242 25.4992 57.2038 25.8333 58.9001 25.8333C60.5963 25.8333 62.2759 25.4992 63.8431 24.8501C65.4102 24.201 66.8341 23.2496 68.0335 22.0501C69.233 20.8507 70.1844 19.4268 70.8335 17.8597C71.4826 16.2925 71.8167 14.6129 71.8167 12.9167C71.8167 11.2204 71.4826 9.5408 70.8335 7.97367C70.1844 6.40655 69.233 4.98263 68.0335 3.7832C66.8341 2.58378 65.4102 1.63235 63.8431 0.983223C62.2759 0.334099 60.5963 0 58.9001 0C57.2038 0 55.5242 0.334099 53.9571 0.983223C52.3899 1.63235 50.966 2.58378 49.7666 3.7832C48.5672 4.98263 47.6157 6.40655 46.9666 7.97367C46.3175 9.5408 45.9834 11.2204 45.9834 12.9167Z"></path>
    <path d="M9.81689 60.4499C9.81689 60.861 9.9802 61.2552 10.2709 61.5459C10.5616 61.8366 10.9558 61.9999 11.3669 61.9999C11.778 61.9999 12.1722 61.8366 12.4629 61.5459C12.7536 61.2552 12.9169 60.861 12.9169 60.4499C12.9169 60.2464 12.8768 60.0448 12.7989 59.8567C12.721 59.6687 12.6068 59.4978 12.4629 59.3539C12.319 59.21 12.1481 59.0958 11.9601 59.0179C11.772 58.94 11.5704 58.8999 11.3669 58.8999C11.1633 58.8999 10.9618 58.94 10.7737 59.0179C10.5857 59.0958 10.4148 59.21 10.2709 59.3539C10.1269 59.4978 10.0128 59.6687 9.93488 59.8567C9.85699 60.0448 9.81689 60.2464 9.81689 60.4499Z"></path>
    <path d="M7.75 84.2167C7.75 85.0389 8.07661 85.8274 8.65797 86.4087C9.23933 86.9901 10.0278 87.3167 10.85 87.3167C11.6722 87.3167 12.4607 86.9901 13.042 86.4087C13.6234 85.8274 13.95 85.0389 13.95 84.2167C13.95 83.3945 13.6234 82.606 13.042 82.0247C12.4607 81.4433 11.6722 81.1167 10.85 81.1167C10.0278 81.1167 9.23933 81.4433 8.65797 82.0247C8.07661 82.606 7.75 83.3945 7.75 84.2167Z"></path>
    <path d="M19.1167 102.817C19.1167 104.05 19.6066 105.233 20.4787 106.105C21.3507 106.977 22.5334 107.467 23.7667 107.467C25 107.467 26.1827 106.977 27.0547 106.105C27.9268 105.233 28.4167 104.05 28.4167 102.817C28.4167 101.583 27.9268 100.401 27.0547 99.5287C26.1827 98.6567 25 98.1667 23.7667 98.1667C22.5334 98.1667 21.3507 98.6567 20.4787 99.5287C19.6066 100.401 19.1167 101.583 19.1167 102.817Z"></path>
    <path d="M54.25 117.283C54.2499 118.165 54.4235 119.039 54.761 119.854C55.0985 120.669 55.5932 121.409 56.2169 122.033C56.8407 122.657 57.5811 123.152 58.3961 123.489C59.2111 123.827 60.0845 124.001 60.9667 124.001C61.8488 124.001 62.7223 123.827 63.5372 123.489C64.3522 123.152 65.0927 122.657 65.7164 122.033C66.3401 121.409 66.8348 120.669 67.1723 119.854C67.5098 119.039 67.6835 118.165 67.6833 117.283C67.6835 116.401 67.5098 115.528 67.1723 114.713C66.8348 113.898 66.3401 113.157 65.7164 112.533C65.0927 111.909 64.3522 111.415 63.5372 111.077C62.7223 110.739 61.8488 110.566 60.9667 110.566C60.0845 110.566 59.2111 110.739 58.3961 111.077C57.5811 111.415 56.8407 111.909 56.2169 112.533C55.5932 113.157 55.0985 113.898 54.761 114.713C54.4235 115.528 54.2499 116.401 54.25 117.283Z"></path>
    <path d="M89.3833 101.267C89.3833 103.459 90.2542 105.562 91.8045 107.112C93.3548 108.662 95.4575 109.533 97.65 109.533C99.8424 109.533 101.945 108.662 103.495 107.112C105.046 105.562 105.917 103.459 105.917 101.267C105.917 99.0742 105.046 96.9716 103.495 95.4213C101.945 93.871 99.8424 93 97.65 93C95.4575 93 93.3548 93.871 91.8045 95.4213C90.2542 96.9716 89.3833 99.0742 89.3833 101.267Z"></path>
    <path d="M102.3 64.0668C102.3 65.356 102.553 66.6326 103.047 67.8238C103.54 69.0149 104.263 70.0972 105.175 71.0089C106.086 71.9206 107.168 72.6438 108.36 73.1372C109.551 73.6306 110.827 73.8845 112.116 73.8845C113.406 73.8845 114.682 73.6306 115.873 73.1372C117.064 72.6438 118.147 71.9206 119.058 71.0089C119.97 70.0972 120.693 69.0149 121.186 67.8238C121.679 66.6326 121.933 65.356 121.933 64.0668C121.933 62.7775 121.679 61.5009 121.186 60.3098C120.693 59.1186 119.97 58.0363 119.058 57.1246C118.147 56.213 117.064 55.4898 115.873 54.9964C114.682 54.503 113.406 54.249 112.116 54.249C110.827 54.249 109.551 54.503 108.36 54.9964C107.168 55.4898 106.086 56.213 105.175 57.1246C104.263 58.0363 103.54 59.1186 103.047 60.3098C102.553 61.5009 102.3 62.7775 102.3 64.0668Z"></path>
    <path d="M84.7334 27.3833C84.7334 30.3979 85.931 33.2891 88.0626 35.4207C90.1943 37.5524 93.0854 38.7499 96.1001 38.7499C99.1147 38.7499 102.006 37.5524 104.138 35.4207C106.269 33.2891 107.467 30.3979 107.467 27.3833C107.467 24.3686 106.269 21.4775 104.138 19.3458C102.006 17.2142 99.1147 16.0166 96.1001 16.0166C93.0854 16.0166 90.1943 17.2142 88.0626 19.3458C85.931 21.4775 84.7334 24.3686 84.7334 27.3833Z"></path>
  </g>
  <defs>
    <clipPath id="a55wjm7ei__clip0_54_799">
      <path fill="#fff" d="M0 0H124V124H0z"></path>
    </clipPath>
  </defs>
</svg>