<svg xmlns="http://www.w3.org/2000/svg" fill="none" viewBox="0 0 30 30" class="design-iconfont" width="128" height="128">
  <g clip-path="url(#ei1583pwz__clip0_58_2331)" fill="#999">
    <path d="M11.125 3.125C11.125 3.53538 11.2058 3.94174 11.3629 4.32089C11.5199 4.70003 11.7501 5.04453 12.0403 5.33471C12.3305 5.62489 12.675 5.85508 13.0541 6.01212C13.4333 6.16917 13.8396 6.25 14.25 6.25C14.6604 6.25 15.0667 6.16917 15.4459 6.01212C15.825 5.85508 16.1695 5.62489 16.4597 5.33471C16.7499 5.04453 16.9801 4.70003 17.1371 4.32089C17.2942 3.94174 17.375 3.53538 17.375 3.125C17.375 2.71462 17.2942 2.30826 17.1371 1.92911C16.9801 1.54997 16.7499 1.20547 16.4597 0.915291C16.1695 0.625108 15.825 0.394922 15.4459 0.237876C15.0667 0.0808305 14.6604 0 14.25 0C13.8396 0 13.4333 0.0808305 13.0541 0.237876C12.675 0.394922 12.3305 0.625108 12.0403 0.915291C11.7501 1.20547 11.5199 1.54997 11.3629 1.92911C11.2058 2.30826 11.125 2.71462 11.125 3.125Z"></path>
    <path d="M2.375 14.625C2.375 14.7245 2.41451 14.8198 2.48483 14.8902C2.55516 14.9605 2.65054 15 2.75 15C2.84946 15 2.94484 14.9605 3.01516 14.8902C3.08549 14.8198 3.125 14.7245 3.125 14.625C3.125 14.5758 3.1153 14.527 3.09645 14.4815C3.07761 14.436 3.04999 14.3947 3.01516 14.3598C2.98034 14.325 2.939 14.2974 2.89351 14.2785C2.84801 14.2597 2.79925 14.25 2.75 14.25C2.70075 14.25 2.65199 14.2597 2.60649 14.2785C2.561 14.2974 2.51966 14.325 2.48483 14.3598C2.45001 14.3947 2.42239 14.436 2.40355 14.4815C2.3847 14.527 2.375 14.5758 2.375 14.625Z"></path>
    <path d="M1.875 20.375C1.875 20.5739 1.95402 20.7647 2.09467 20.9053C2.23532 21.046 2.42609 21.125 2.625 21.125C2.82391 21.125 3.01468 21.046 3.15533 20.9053C3.29598 20.7647 3.375 20.5739 3.375 20.375C3.375 20.1761 3.29598 19.9853 3.15533 19.8447C3.01468 19.704 2.82391 19.625 2.625 19.625C2.42609 19.625 2.23532 19.704 2.09467 19.8447C1.95402 19.9853 1.875 20.1761 1.875 20.375Z"></path>
    <path d="M4.625 24.875C4.625 25.1734 4.74353 25.4595 4.9545 25.6705C5.16548 25.8815 5.45163 26 5.75 26C6.04837 26 6.33452 25.8815 6.5455 25.6705C6.75647 25.4595 6.875 25.1734 6.875 24.875C6.875 24.5766 6.75647 24.2905 6.5455 24.0795C6.33452 23.8685 6.04837 23.75 5.75 23.75C5.45163 23.75 5.16548 23.8685 4.9545 24.0795C4.74353 24.2905 4.625 24.5766 4.625 24.875Z"></path>
    <path d="M13.125 28.375C13.125 28.5884 13.167 28.7997 13.2486 28.9969C13.3303 29.1941 13.45 29.3732 13.6009 29.5242C13.7518 29.6751 13.9309 29.7948 14.1281 29.8765C14.3253 29.9582 14.5366 30.0002 14.75 30.0002C14.9634 30.0002 15.1747 29.9582 15.3719 29.8765C15.5691 29.7948 15.7482 29.6751 15.8991 29.5242C16.05 29.3732 16.1697 29.1941 16.2514 28.9969C16.333 28.7997 16.375 28.5884 16.375 28.375C16.375 28.1616 16.333 27.9502 16.2514 27.753C16.1697 27.5559 16.05 27.3767 15.8991 27.2258C15.7482 27.0749 15.5691 26.9552 15.3719 26.8735C15.1747 26.7918 14.9634 26.7498 14.75 26.7498C14.5366 26.7498 14.3253 26.7918 14.1281 26.8735C13.9309 26.9552 13.7518 27.0749 13.6009 27.2258C13.45 27.3767 13.3303 27.5559 13.2486 27.753C13.167 27.9502 13.125 28.1616 13.125 28.375Z"></path>
    <path d="M21.625 24.5C21.625 25.0304 21.8357 25.5391 22.2108 25.9142C22.5859 26.2893 23.0946 26.5 23.625 26.5C24.1554 26.5 24.6641 26.2893 25.0392 25.9142C25.4143 25.5391 25.625 25.0304 25.625 24.5C25.625 23.9696 25.4143 23.4609 25.0392 23.0858C24.6641 22.7107 24.1554 22.5 23.625 22.5C23.0946 22.5 22.5859 22.7107 22.2108 23.0858C21.8357 23.4609 21.625 23.9696 21.625 24.5Z"></path>
    <path d="M24.75 15.5C24.75 15.8119 24.8114 16.1208 24.9307 16.409C25.0501 16.6972 25.225 16.959 25.4455 17.1796C25.6661 17.4001 25.9279 17.5751 26.2161 17.6945C26.5042 17.8138 26.8131 17.8753 27.125 17.8753C27.4369 17.8753 27.7458 17.8138 28.0339 17.6945C28.3221 17.5751 28.5839 17.4001 28.8045 17.1796C29.025 16.959 29.2 16.6972 29.3193 16.409C29.4386 16.1208 29.5 15.8119 29.5 15.5C29.5 15.1881 29.4386 14.8792 29.3193 14.5911C29.2 14.3029 29.025 14.041 28.8045 13.8205C28.5839 13.5999 28.3221 13.4249 28.0339 13.3056C27.7458 13.1862 27.4369 13.1248 27.125 13.1248C26.8131 13.1248 26.5042 13.1862 26.2161 13.3056C25.9279 13.4249 25.6661 13.5999 25.4455 13.8205C25.225 14.041 25.0501 14.3029 24.9307 14.5911C24.8114 14.8792 24.75 15.1881 24.75 15.5Z"></path>
    <path d="M20.5 6.625C20.5 7.35435 20.7897 8.05382 21.3055 8.56954C21.8212 9.08527 22.5207 9.375 23.25 9.375C23.9793 9.375 24.6788 9.08527 25.1945 8.56954C25.7103 8.05382 26 7.35435 26 6.625C26 5.89565 25.7103 5.19618 25.1945 4.68046C24.6788 4.16473 23.9793 3.875 23.25 3.875C22.5207 3.875 21.8212 4.16473 21.3055 4.68046C20.7897 5.19618 20.5 5.89565 20.5 6.625Z"></path>
  </g>
  <defs>
    <clipPath id="ei1583pwz__clip0_58_2331">
      <path fill="#fff" d="M0 0H30V30H0z"></path>
    </clipPath>
  </defs>
</svg>