<svg xmlns="http://www.w3.org/2000/svg" viewBox="0 0 64 32" class="design-iconfont" width="160" height="80">
  <g fill="none" fill-rule="evenodd">
    <path fill="#3F73F6" d="M0.0272681704 7.36080201L0.0224561404 15.1017544 13.0245614 7.59498747 13.0245614 0z" transform="translate(0 1)"></path>
    <path fill="#3F73F6" d="M12.8882206 22.3582957L12.9748371 30.0495238 25.9769424 22.5443609 25.9769424 14.9493734z" transform="translate(0 1)"></path>
    <path fill="#111" d="M32.2454135 22.1417544L32.8212531 22.1417544 33.4788972 23.203609 34.1397494 22.1417544 34.7059649 22.1417544 33.764411 23.5693233 34.7364411 25.0770927 34.1557895 25.0770927 33.4708772 23.9623058 32.802005 25.0770927 32.2213534 25.0770927 33.1789474 23.5741353z" transform="translate(0 1)"></path>
    <path d="M36.0998496,22.1353383 L36.5906767,22.1353383 L36.5906767,23.9607018 C36.5732677,24.1611958 36.6303751,24.3610717 36.7510777,24.5221053 C36.8849172,24.6534589 37.0695246,24.7196832 37.2563409,24.7033584 C37.444474,24.7187516 37.6301809,24.6527614 37.766416,24.5221053 C37.8867094,24.3608688 37.9437713,24.1611518 37.926817,23.9607018 L37.926817,22.1353383 L38.4176441,22.1353383 L38.4176441,23.9879699 C38.4540809,24.4261978 38.2408965,24.8476579 37.866295,25.077973 C37.4916935,25.3082881 37.0193842,25.3082881 36.6447827,25.077973 C36.2701811,24.8476579 36.0569968,24.4261978 36.0934336,23.9879699 L36.0998496,22.1353383 Z" fill="#111" transform="translate(0 1)"></path>
    <path d="M41.0626566,22.6357895 L40.6263659,23.9093734 L41.4989474,23.9093734 L41.0626566,22.6357895 Z M40.7899749,22.1417544 L41.3401504,22.1417544 L42.4164411,25.0770927 L41.8951378,25.0770927 L41.6320802,24.316792 L40.4900251,24.316792 L40.2333835,25.0770927 L39.7233083,25.0770927 L40.7899749,22.1417544 Z" fill="#111" transform="translate(0 1)"></path>
    <path fill="#111" d="M43.8055138 22.1417544L44.322005 22.1417544 45.6902256 24.3376441 45.6902256 22.1417544 46.1618045 22.1417544 46.1618045 25.0770927 45.6485213 25.0770927 44.2722807 22.881203 44.2722807 25.0770927 43.8055138 25.0770927z" transform="translate(0 1)"></path>
    <path fill="#111" d="M49.9488722 22.1417544L52.152782 22.1417544 52.152782 22.5716291 50.4637594 24.64401 52.1399499 24.64401 52.1399499 25.0770927 49.8670677 25.0770927 49.8670677 24.6680702 51.5769424 22.565213 49.9488722 22.565213z" transform="translate(0 1)"></path>
    <path fill="#111" d="M53.607619 22.1417544L54.0952381 22.1417544 54.0952381 23.2966416 55.4843108 23.2966416 55.4843108 22.1417544 55.9719298 22.1417544 55.9719298 25.0770927 55.4843108 25.0770927 55.4843108 23.7329323 54.0952381 23.7329323 54.0952381 25.0770927 53.607619 25.0770927z" transform="translate(0 1)"></path>
    <path fill="#111" d="M57.6753885 22.1417544L59.7798496 22.1417544 59.7798496 22.5716291 58.1549875 22.5716291 58.1549875 23.3383459 59.6547368 23.3383459 59.6547368 23.7489724 58.1549875 23.7489724 58.1549875 24.63599 59.832782 24.63599 59.832782 25.0770927 57.6753885 25.0770927z" transform="translate(0 1)"></path>
    <path fill="#111" d="M61.3886717 22.1417544L61.9067669 22.1417544 63.2749875 24.3376441 63.2749875 22.1417544 63.7465664 22.1417544 63.7465664 25.0770927 63.2316792 25.0770927 61.8570426 22.881203 61.8570426 25.0770927 61.3886717 25.0770927z" transform="translate(0 1)"></path>
    <path d="M37.6942356,7.28701754 L44.3091729,7.28701754 L44.3091729,8.14837093 L37.6942356,8.14837093 L37.6942356,7.28701754 Z M36.1335338,7.16671679 L36.1335338,8.46115288 L36.9948872,8.46115288 L36.9948872,9.44120301 L44.8449123,9.44120301 L44.8449123,8.46115288 L45.8746867,8.46115288 L45.8746867,5.89473684 L41.8165414,5.89473684 L41.8165414,4.89223058 L40.1964912,4.89223058 L40.1964912,5.8883208 L36.1383459,5.8883208 L36.1383459,7.05764411 L33.4917293,5.3766416 L32.6223559,6.5764411 L35.2882206,8.46115288 L36.1335338,7.16671679 Z" fill="#111" transform="translate(0 1)"></path>
    <path fill="#111" d="M35.9667168 10.4228571L33.275188 8.77233083 32.4282707 10.0058145 35.0299749 11.8648622z" transform="translate(0 1)"></path>
    <path d="M38.1962907,13.6340852 L43.0580451,13.6340852 L43.0580451,12.4294737 L38.1962907,12.4294737 L38.1962907,11.523208 L43.8007018,11.523208 L43.8007018,14.5708271 L38.1962907,14.5708271 L38.1962907,13.6340852 Z M36.5922807,16.2005013 L38.1962907,16.2005013 L38.1962907,15.8796992 L45.3469674,15.8796992 L45.3469674,10.2656642 L36.5906767,10.2656642 L36.5922807,16.2005013 Z" fill="#111" transform="translate(0 1)"></path>
    <path fill="#111" fill-rule="nonzero" d="M35.5657143 16.7410526H45.9564912V18.15258142H35.5657143z" transform="translate(0 1)"></path>
    <path d="M34.8663659,13.0534336 C34.5328041,13.7884078 34.1529605,14.5014851 33.7291228,15.1883709 C33.3229692,15.8131242 32.8519876,16.3932488 32.32401,16.9190977 L33.607218,18.2119298 C34.1541988,17.5874568 34.6427922,16.9141643 35.0668672,16.2005013 C35.5299319,15.4421976 35.9399349,14.6527407 36.2939348,13.8377945 L34.8663659,13.0534336 Z" fill="#111" transform="translate(0 1)"></path>
    <path fill="#111" d="M59.3804511 15.8043108L58.562406 16.8597494 63.2605514 18.5984962 63.9598997 17.1420551z" transform="translate(0 1)"></path>
    <path fill="#2157DF" d="M13.0245614 0L13.0245614 15.0135338 26.0250627 7.50676692z" transform="translate(0 1)"></path>
    <path fill="#2157DF" d="M13.0021053 30.0511278L0 22.5443609 13.0021053 15.037594z" transform="translate(0 1)"></path>
    <path d="M62.877193,14.4729825 L63.9197995,14.4729825 L63.9197995,15.8155388 L54.873183,15.8155388 L55.8131328,16.7234085 C55.1296193,17.1740864 54.3999355,17.5504892 53.6364912,17.8462155 C52.7325483,18.1900849 51.7995424,18.4520566 50.8487218,18.6289724 L50.2071178,17.1083709 C51.0889971,17.0076345 51.9612379,16.8354394 52.8152381,16.5934837 C53.5120618,16.4068237 54.186507,16.144898 54.8266667,15.8123308 L50.2295739,15.8123308 L50.2295739,14.4729825 L51.2737845,14.4729825 L51.2737845,7.61744361 L56.2815038,7.61744361 L56.2815038,6.89724311 L50.3466667,6.89724311 L50.3466667,5.58997494 L56.2815038,5.58997494 L56.2815038,4.90506266 L57.8758897,4.90506266 L57.8758897,5.58997494 L63.839599,5.58997494 L63.839599,6.89724311 L57.8758897,6.89724311 L57.8758897,7.61263158 L62.877193,7.61263158 L62.877193,14.4729825 Z M60.5369424,13.8025063 L52.8970426,13.8025063 L52.8970426,14.4729825 L61.2378947,14.4729825 L61.2378947,8.79478697 L52.8970426,8.79478697 L52.8970426,9.46365915 L60.5433584,9.46365915 L60.5433584,10.4260652 L52.8970426,10.4260652 L52.8970426,11.0676692 L60.5433584,11.0676692 L60.5433584,12.0300752 L52.8970426,12.0300752 L52.8970426,12.7005514 L60.5433584,12.7005514 L60.5369424,13.8025063 Z M63.2348872,18.6145363 L58.5255138,16.8709774 L59.3483709,15.8155388 L63.9422556,17.1629073 L63.2348872,18.6145363 Z" fill="#000" fill-rule="nonzero" transform="translate(0 1)"></path>
  </g>
</svg>