<svg width="80" height="40" viewBox="0 0 80 40" fill="none" xmlns="http://www.w3.org/2000/svg">
<rect opacity="0.01" width="79" height="39.5" fill="#9DCA71"/>
<path fill-rule="evenodd" clip-rule="evenodd" d="M0.0337719 10.3204L0.027832 19.8756L16.0773 10.6094V1.23438L0.0337719 10.3204Z" fill="#3F73F6"/>
<path fill-rule="evenodd" clip-rule="evenodd" d="M15.9087 28.8329L16.0156 38.3267L32.0651 29.0626V19.6875L15.9087 28.8329Z" fill="#3F73F6"/>
<path fill-rule="evenodd" clip-rule="evenodd" d="M39.8031 28.5654H40.5139L41.3257 29.8762L42.1415 28.5654H42.8404L41.6781 30.3276L42.878 32.1887H42.1613L41.3158 30.8127L40.4902 32.1887H39.7734L40.9555 30.3335L39.8031 28.5654Z" fill="white"/>
<path fill-rule="evenodd" clip-rule="evenodd" d="M44.5607 28.5576H45.1666V30.8108C45.1451 31.0583 45.2156 31.305 45.3646 31.5038C45.5298 31.6659 45.7577 31.7477 45.9883 31.7275C46.2205 31.7465 46.4497 31.6651 46.6179 31.5038C46.7664 31.3048 46.8368 31.0582 46.8159 30.8108V28.5576H47.4218V30.8445C47.4667 31.3854 47.2036 31.9056 46.7412 32.1899C46.2788 32.4742 45.6958 32.4742 45.2334 32.1899C44.771 31.9056 44.5078 31.3854 44.5528 30.8445L44.5607 28.5576Z" fill="white"/>
<path fill-rule="evenodd" clip-rule="evenodd" d="M50.6865 29.1753L50.148 30.7474H51.2251L50.6865 29.1753ZM50.3499 28.5654H51.029L52.3575 32.1887H51.7141L51.3893 31.2502H49.9796L49.6628 32.1887H49.0332L50.3499 28.5654Z" fill="white"/>
<path fill-rule="evenodd" clip-rule="evenodd" d="M54.0723 28.5654H54.7098L56.3987 31.276V28.5654H56.9808V32.1887H56.3472L54.6484 29.4782V32.1887H54.0723V28.5654Z" fill="white"/>
<path fill-rule="evenodd" clip-rule="evenodd" d="M61.6557 28.5654H64.3761V29.0961L62.2912 31.6542H64.3603V32.1887H61.5547V31.6839L63.6653 29.0881H61.6557V28.5654Z" fill="white"/>
<path fill-rule="evenodd" clip-rule="evenodd" d="M66.1719 28.5654H66.7738V29.991H68.4884V28.5654H69.0903V32.1887H68.4884V30.5295H66.7738V32.1887H66.1719V28.5654Z" fill="white"/>
<path fill-rule="evenodd" clip-rule="evenodd" d="M71.1934 28.5654H73.7911V29.0961H71.7854V30.0425H73.6366V30.5493H71.7854V31.6443H73.8564V32.1887H71.1934V28.5654Z" fill="white"/>
<path fill-rule="evenodd" clip-rule="evenodd" d="M75.7764 28.5654H76.4159L78.1048 31.276V28.5654H78.6869V32.1887H78.0513L76.3545 29.4782V32.1887H75.7764V28.5654Z" fill="white"/>
<path fill-rule="evenodd" clip-rule="evenodd" d="M46.5289 10.2295H54.6942V11.2927H46.5289V10.2295ZM44.6022 10.081V11.6788H45.6654V12.8886H55.3553V11.6788H56.6264V8.51091H51.6171V7.27344H49.6174V8.50299H44.6081V9.94637L41.3412 7.87138L40.2681 9.35238L43.5587 11.6788L44.6022 10.081Z" fill="white"/>
<path fill-rule="evenodd" clip-rule="evenodd" d="M44.3966 14.1004L41.0742 12.063L40.0288 13.5856L43.2403 15.8803L44.3966 14.1004Z" fill="white"/>
<path fill-rule="evenodd" clip-rule="evenodd" d="M47.1486 18.0641H53.1498V16.5772H47.1486V15.4585H54.0665V19.2204H47.1486V18.0641ZM45.169 21.2321H47.1489V20.8361H55.9755V13.9062H45.167L45.169 21.2321Z" fill="white"/>
<path fill-rule="evenodd" clip-rule="evenodd" d="M77.6142 19.0995H78.9012V20.7567H73.2585L73.2583 20.7566L73.2583 20.7567H67.7343L68.8945 21.8773C68.0508 22.4336 67.1501 22.8983 66.2077 23.2633C65.0919 23.6878 63.9403 24.0111 62.7666 24.2295L61.9746 22.3525C63.0632 22.2282 64.1399 22.0156 65.194 21.717C66.0541 21.4865 66.8867 21.1632 67.6769 20.7527H62.0023V19.0995H63.2913V10.6372H69.4727V9.74816H62.1469V8.1345H69.4727V7.28906H71.4407V8.1345H78.8022V9.74816H71.4407V10.6312H77.6142V19.0995ZM73.2583 20.7567L72.2426 22.0594L78.0557 24.2117L78.9289 22.4198L73.2585 20.7567H73.2583ZM74.7253 18.2717H65.2948V19.0993H75.5905V12.0903H65.2948V12.9159H74.7332V14.1039H65.2948V14.8959H74.7332V16.0839H65.2948V16.9115H74.7332L74.7253 18.2717Z" fill="white"/>
<rect x="43.9014" y="21.8994" width="12.8261" height="1.74236" fill="white"/>
<path fill-rule="evenodd" clip-rule="evenodd" d="M43.0381 17.3472C42.6264 18.2544 42.1575 19.1346 41.6343 19.9825C41.133 20.7537 40.5516 21.4698 39.8999 22.1188L41.4839 23.7147C42.159 22.9439 42.7621 22.1128 43.2856 21.2318C43.8572 20.2958 44.3633 19.3213 44.8003 18.3154L43.0381 17.3472Z" fill="white"/>
<path fill-rule="evenodd" clip-rule="evenodd" d="M73.2979 20.7427L72.2881 22.0455L78.0874 24.1917L78.9506 22.394L73.2979 20.7427Z" fill="white"/>
<path fill-rule="evenodd" clip-rule="evenodd" d="M16.0771 1.23438V19.7667L32.1246 10.5005L16.0771 1.23438Z" fill="#2157DF"/>
<path fill-rule="evenodd" clip-rule="evenodd" d="M16.0495 38.3287L0 29.0626L16.0495 19.7964V38.3287Z" fill="#2157DF"/>
</svg>
