<svg xmlns="http://www.w3.org/2000/svg" viewBox="0 0 142 48" class="design-iconfont" width="128" height="43.267605633802816">
  <g fill="none" fill-rule="evenodd">
    <path d="M62.8775758,13.1660606 C63.6363636,12.6278788 64.3733333,12.0533333 65.0909091,11.4690909 C65.8084848,10.8848485 66.4921212,10.2569697 67.1393939,9.62666667 C67.7866667,8.99636364 68.3781818,8.36363636 68.9236364,7.72363636 C69.7637235,8.72765525 70.6691232,9.67516665 71.6339394,10.56 C72.6574774,11.4951503 73.738365,12.365528 74.870303,13.1660606 L62.8775758,13.1660606 Z M75.6412121,15.76 L75.6412121,13.6945455 C76.150303,14.0315152 76.6739394,14.3466667 77.2048485,14.6448485 C77.7357576,14.9430303 78.2787879,15.2266667 78.8242424,15.4860606 C78.9866667,15.2048485 79.190303,14.9018182 79.4254545,14.5745455 C79.6606061,14.2472727 79.910303,13.9321212 80.1721212,13.6290909 C80.4012068,13.3567735 80.6439422,13.0962375 80.8993939,12.8484848 C79.833797,12.44432 78.8011975,11.9580094 77.8109091,11.3939394 C76.814579,10.829998 75.8587315,10.1973565 74.950303,9.50060606 C74.0740528,8.83170919 73.2453867,8.10267738 72.470303,7.31878788 C71.7602288,6.59659127 71.111523,5.81652256 70.5309091,4.98666667 L67.8133333,4.98666667 C66.790303,6.49939394 65.0836364,8.08242424 63.6921212,9.16606061 L63.6921212,9.16606061 C63.4012121,9.40848485 63.1006061,9.63151515 62.7951515,9.85939394 C61.8927113,10.5327046 60.9539196,11.155868 59.9830303,11.7260606 C59.0663646,12.2634559 58.1147407,12.7388629 57.1345455,13.1490909 C57.3674662,13.3872192 57.5860331,13.6389759 57.7890909,13.9030303 C58.0121212,14.1842424 58.2157576,14.470303 58.4121212,14.7660606 C58.6084848,15.0618182 58.7636364,15.3333333 58.8969697,15.5854545 C59.4206061,15.3260606 59.9563636,15.0351515 60.4945455,14.7151515 C61.0327273,14.3951515 61.5733333,14.0557576 62.1066667,13.6945455 L62.1066667,15.76 L67.3333333,15.76 L67.3333333,18.6230303 L60.9115152,18.6230303 L60.9115152,21.1660606 L67.3309091,21.1660606 L67.3309091,24.1963636 L58.4727273,24.1963636 L58.4727273,26.8315152 L79.5636364,26.8315152 L79.5636364,24.1963636 L70.4145455,24.1963636 L70.4145455,21.1660606 L76.9090909,21.1660606 L76.9090909,18.6230303 L70.4145455,18.6230303 L70.4145455,15.76 L75.6412121,15.76 Z M91.8012121,19.2678788 L101.553939,19.2678788 L101.553939,20.4145455 L91.8012121,20.4145455 L91.8012121,19.2678788 Z M101.553939,11.3066667 L101.553939,12.3757576 L91.8012121,12.3757576 L91.8012121,11.3066667 L101.553939,11.3066667 Z M101.553939,16.64 L101.553939,17.609697 L91.8012121,17.609697 L91.8012121,16.64 L101.553939,16.64 Z M101.553939,14.9963636 L91.8012121,14.9963636 L91.8012121,14.0509091 L101.553939,14.0509091 L101.553939,14.9963636 Z M107.747879,22.8630303 L107.747879,20.4387879 L104.538182,20.4387879 L104.538182,9.46666667 L97.7721212,9.46666667 C97.8084848,9.29212121 97.8424242,9.11030303 97.8763636,8.92363636 C97.910303,8.7369697 97.9466667,8.54545455 97.9951515,8.34666667 L107.151515,8.34666667 L107.151515,5.89333333 L98.4678788,5.89333333 L98.710303,4.43878788 L95.6,4.14060606 C95.6,4.40242424 95.5636364,4.68121212 95.5345455,4.97454545 C95.5054545,5.26787879 95.4763636,5.57090909 95.449697,5.88363636 L86.3006061,5.88363636 L86.3006061,8.34666667 L95.110303,8.34666667 C95.0343434,8.74424242 94.9591919,9.11757576 94.8848485,9.46666667 L88.9381818,9.46666667 L88.9381818,20.4145455 L85.6290909,20.4145455 L85.6290909,22.8387879 L92.4169697,22.8387879 C91.9598545,23.1111277 91.4880224,23.3579695 91.0036364,23.5781818 C90.4654545,23.8206061 89.8884848,24.0630303 89.2654545,24.2909091 C88.6424242,24.5187879 88.0169697,24.7345455 87.3745455,24.9284848 C86.7321212,25.1224242 86.1115152,25.289697 85.5006061,25.4278788 C85.7212121,25.6145455 85.9563636,25.8254545 86.2060606,26.0654545 C86.4557576,26.3054545 86.6909091,26.550303 86.9333333,26.7927273 C87.1757576,27.0351515 87.36,27.2533333 87.52,27.4472727 C88.1430303,27.2969697 88.7854545,27.110303 89.4593939,26.8969697 C90.1333333,26.6836364 90.8,26.4387879 91.4666667,26.169697 C92.1333333,25.9006061 92.7733333,25.6290909 93.3818182,25.3381818 C93.990303,25.0472727 94.5406061,24.7515152 95.0375758,24.4509091 L92.72,22.8630303 L99.9927273,22.8630303 L98.4,24.5066667 C99.0884848,24.7135354 99.7705051,24.939798 100.446061,25.1854545 C101.122424,25.4278788 101.767273,25.6848485 102.385455,25.9442424 C103.003636,26.2036364 103.597576,26.4678788 104.130909,26.72 C104.664242,26.9721212 105.141818,27.2048485 105.556364,27.4472727 L108.019394,25.4569697 C107.604848,25.2581818 107.13697,25.0448485 106.610909,24.8266667 C106.084848,24.6084848 105.524848,24.3781818 104.913939,24.1551515 C104.30303,23.9321212 103.701818,23.7018182 103.054545,23.4860606 C102.407273,23.270303 101.781818,23.0642424 101.144242,22.8678788 L107.747879,22.8630303 Z M133.015758,5.84484848 L115.997576,5.84484848 L115.997576,8.88 L133.015758,8.88 L133.015758,5.83272727 L133.015758,5.84484848 Z M135.578182,15.8327273 L135.578182,12.7490909 L113.185455,12.7490909 L113.185455,15.8327273 L119.927273,15.8327273 C119.575758,16.4993939 119.219394,17.1442424 118.853333,17.7527273 C118.487273,18.3612121 118.140606,18.9212121 117.806061,19.4327273 C117.471515,19.9442424 117.161212,20.3830303 116.889697,20.7515152 C116.681183,21.0392858 116.457852,21.3160228 116.220606,21.5806061 C115.951515,21.8860606 115.701818,22.1527273 115.493333,22.3757576 C115.293666,22.5795155 115.077138,22.7660376 114.846061,22.9333333 C114.645741,23.0720339 114.424863,23.1783825 114.191515,23.2484848 C114.290909,23.4909091 114.397576,23.7624242 114.513939,24.0678788 C114.630303,24.3733333 114.73697,24.6860606 114.846061,25.0060606 C114.955152,25.3260606 115.052121,25.6145455 115.139394,25.8884848 C115.226667,26.1624242 115.289697,26.3733333 115.335758,26.5575758 C115.54154,26.4789894 115.752056,26.4134057 115.966061,26.3612121 C116.208485,26.3078788 116.487273,26.249697 116.831515,26.1963636 C117.175758,26.1430303 117.6,26.0921212 118.109091,26.0339394 C118.618182,25.9757576 119.241212,25.9224242 119.978182,25.8545455 L122.625455,25.6363636 L126.225455,25.3527273 C127.6,25.2509091 129.175758,25.1248485 130.96,24.9890909 C131.246061,25.4739394 131.50303,25.9393939 131.730909,26.3781818 C131.958788,26.8169697 132.167273,27.2290909 132.353939,27.6024242 L135.238788,25.8593939 C134.915556,25.2694949 134.542222,24.6230303 134.118788,23.92 C133.689697,23.2145455 133.21697,22.4654545 132.710303,21.7139394 C132.203636,20.9624242 131.684848,20.1890909 131.151515,19.430303 C130.618182,18.6715152 130.089697,17.9490909 129.566061,17.2606061 L126.855758,18.6787879 C127.231515,19.2169697 127.61697,19.7818182 128.019394,20.3757576 C128.421818,20.969697 128.819394,21.5612121 129.231515,22.1624242 L119.292121,22.7587879 C120.140606,21.7551515 120.98101,20.6674747 121.813333,19.4957576 C122.645657,18.3240404 123.424646,17.1030303 124.150303,15.8327273 L135.578182,15.8327273 Z" fill="#212121" fill-rule="nonzero" transform="translate(3 2)"></path>
    <path d="M61.6751515,36.9430303 C61.4657507,37.1335606 61.2176714,37.2766197 60.9478788,37.3624242 C60.6282559,37.4598717 60.295308,37.5065007 59.9612121,37.5006061 C59.5861048,37.5050556 59.2132695,37.4418214 58.8606061,37.3139394 C58.5345823,37.1909403 58.2374696,37.0019436 57.9878788,36.7587879 C57.7139082,36.4916795 57.4984429,36.1705453 57.3551515,35.8157576 C57.2078124,35.4490363 57.1336912,35.0570176 57.1369697,34.6618182 C57.1334442,34.2681688 57.2075861,33.8776885 57.3551515,33.5127273 C57.4991546,33.1597387 57.7145709,32.8403284 57.9878788,32.5745455 C58.2394918,32.3286473 58.5390459,32.1371968 58.8678788,32.0121212 C59.5735051,31.7611803 60.3440706,31.7611803 61.049697,32.0121212 C61.3785299,32.1371968 61.678084,32.3286473 61.929697,32.5745455 C62.2045316,32.8395503 62.4208834,33.1591234 62.5648485,33.5127273 C62.8337288,34.2123338 62.85087,34.9836852 62.6133333,35.6945455 C62.5030303,36.0016116 62.3324094,36.2835071 62.1115152,36.5236364 L62.7054545,37.1030303 L62.2666667,37.5587879 L61.6678788,36.9381818 L61.6751515,36.9430303 Z M61.2072727,36.48 L60.5987879,35.8909091 L61.049697,35.4278788 L61.6436364,36.0484848 C61.773143,35.829734 61.8757065,35.5961172 61.9490909,35.3527273 C62.0157387,35.1284436 62.050024,34.8957932 62.0509091,34.6618182 C62.0549078,34.3571848 62.0014493,34.0545275 61.8933333,33.769697 C61.7878805,33.4976972 61.6278224,33.2501846 61.4230303,33.0424242 C61.2385131,32.8542153 61.0162765,32.7071591 60.7709091,32.6109091 C60.2482665,32.4138189 59.6717335,32.4138189 59.1490909,32.6109091 C58.903415,32.7065644 58.6810602,32.8536988 58.4969697,33.0424242 C58.2921776,33.2501846 58.1321195,33.4976972 58.0266667,33.769697 C57.8150102,34.3447799 57.8150102,34.9764323 58.0266667,35.5515152 C58.1315242,35.8232456 58.290732,36.070719 58.4945455,36.2787879 C58.6814189,36.4652653 58.9040593,36.6120431 59.1490909,36.710303 C59.4056136,36.8097751 59.6788266,36.8591509 59.9539394,36.8557576 C60.1731761,36.856297 60.3912894,36.8244378 60.6012121,36.7612121 C60.815243,36.6958959 61.0191998,36.60126 61.2072727,36.48 L61.2072727,36.48 Z" fill="#212121" fill-rule="nonzero" transform="translate(3 2)"></path>
    <path d="M65.3066667,31.929697 L65.3066667,35.2969697 C65.2804472,35.7111414 65.4082296,36.1203905 65.6654545,36.4460606 C66.2398013,36.980951 67.1298957,36.980951 67.7042424,36.4460606 C67.9590807,36.118426 68.0850013,35.7087528 68.0581818,35.2945455 L68.0581818,31.929697 L68.7733333,31.929697 L68.7733333,35.3406061 C68.8006717,35.9197267 68.5945771,36.4856136 68.2012121,36.9115152 C67.341066,37.6971046 66.0237825,37.6971046 65.1636364,36.9115152 C64.7689162,36.4862929 64.5618563,35.9201543 64.5890909,35.3406061 L64.5890909,31.929697 L65.3066667,31.929697 Z" fill="#212121" fill-rule="nonzero" transform="translate(3 2)"></path>
    <path d="M71.5854545,35.4836364 L73.6460606,35.4836364 L72.7854545,33.2872727 C72.7709091,33.2533333 72.7515152,33.1927273 72.7224242,33.1006061 C72.6933333,33.0084848 72.6593939,32.9018182 72.6230303,32.7806061 C72.5866667,32.8993939 72.5551515,33.0060606 72.5236364,33.0957576 C72.4921212,33.1854545 72.4727273,33.2509091 72.4581818,33.2872727 L71.5854545,35.4836364 L71.5854545,35.4836364 Z M70.089697,37.3939394 L72.3224242,31.9224242 L72.9139394,31.9224242 L75.2193939,37.3939394 L74.390303,37.3939394 L73.9054545,36.1284848 L71.3381818,36.1284848 L70.8533333,37.3939394 L70.089697,37.3939394 Z" fill="#212121" fill-rule="nonzero" transform="translate(3 2)"></path>
    <path d="M76.6909091,37.3939394 L76.6909091,31.929697 L77.3624242,31.929697 L80.0072727,35.7115152 C80.0845275,35.8180029 80.1541944,35.929794 80.2157576,36.0460606 C80.284297,36.1743368 80.3458021,36.3062491 80.4,36.4412121 C80.3581705,36.2872278 80.3249874,36.1310242 80.3006061,35.9733333 C80.2776612,35.8420217 80.2654994,35.7090528 80.2642424,35.5757576 L80.2642424,31.9393939 L80.96,31.9393939 L80.96,37.4036364 L80.3806061,37.4036364 L77.6048485,33.4472727 C77.5230758,33.3319674 77.4478071,33.2121849 77.3793939,33.0884848 C77.33143,32.9985066 77.2916732,32.9043885 77.2606061,32.8072727 C77.3018182,32.9963636 77.3309091,33.1709091 77.350303,33.3333333 C77.3670166,33.4846934 77.3759173,33.6368145 77.3769697,33.7890909 L77.3769697,37.3939394 L76.6909091,37.3939394 Z" fill="#212121" fill-rule="nonzero" transform="translate(3 2)"></path>
    <path d="M83.609697,37.3939394 L86.3321212,33.0448485 C86.3885517,32.9460658 86.4517321,32.8512952 86.5212121,32.7612121 C86.5707044,32.6973339 86.6267696,32.6388311 86.6884848,32.5866667 L83.9078788,32.5866667 L83.9078788,31.929697 L87.849697,31.929697 L85.1490909,36.1963636 C85.0593939,36.3345455 84.9842424,36.4387879 84.9236364,36.5236364 C84.8681142,36.6004539 84.8073643,36.6733539 84.7418182,36.7418182 L87.6872727,36.7418182 L87.6872727,37.3842424 L83.609697,37.3939394 Z" fill="#212121" fill-rule="nonzero" transform="translate(3 2)"></path>
    <path fill="#212121" fill-rule="nonzero" d="M89.4545455 37.3939394L89.4545455 31.929697 90.1624242 31.929697 90.1624242 34.2545455 93.0278788 34.2545455 93.0278788 31.929697 93.7381818 31.929697 93.7381818 37.3939394 93.0278788 37.3939394 93.0278788 34.8969697 90.1624242 34.8969697 90.1624242 37.3939394z" transform="translate(3 2)"></path>
    <path fill="#212121" fill-rule="nonzero" d="M95.8084848 37.3939394L95.8084848 31.929697 98.6472727 31.929697 98.6472727 32.5745455 96.5163636 32.5745455 96.5163636 34.2812121 98.6472727 34.2812121 98.6472727 34.9115152 96.5163636 34.9115152 96.5163636 36.7515152 98.6472727 36.7515152 98.6472727 37.3939394z" transform="translate(3 2)"></path>
    <path d="M100.688485,37.3939394 L100.688485,31.929697 L101.362424,31.929697 L104.004848,35.7115152 C104.082909,35.817947 104.153386,35.9297381 104.215758,36.0460606 C104.284297,36.1743368 104.345802,36.3062491 104.4,36.4412121 C104.356364,36.2763636 104.322424,36.1212121 104.298182,35.9733333 C104.277159,35.8418167 104.265815,35.7089346 104.264242,35.5757576 L104.264242,31.9393939 L104.96,31.9393939 L104.96,37.4036364 L104.380606,37.4036364 L101.604848,33.4472727 C101.505455,33.2993939 101.430303,33.1806061 101.379394,33.0884848 C101.33317,32.9979999 101.294258,32.9039627 101.26303,32.8072727 C101.304242,32.9963636 101.333333,33.1709091 101.352727,33.3333333 C101.369441,33.4846934 101.378342,33.6368145 101.379394,33.7890909 L101.379394,37.3939394 L100.688485,37.3939394 Z" fill="#212121" fill-rule="nonzero" transform="translate(3 2)"></path>
    <path d="M112.172121,33.0448485 C111.983029,32.8576569 111.757866,32.7108474 111.510303,32.6133333 C110.992656,32.4209171 110.423101,32.4209171 109.905455,32.6133333 C109.658233,32.7112464 109.433786,32.8589519 109.246061,33.0472727 C109.041209,33.2545116 108.881854,33.5022145 108.778182,33.7745455 C108.564862,34.3501648 108.564862,34.9831685 108.778182,35.5587879 C108.882422,35.8308314 109.041707,36.0784236 109.246061,36.2860606 C109.431132,36.4730029 109.653263,36.6191634 109.898182,36.7151515 C110.433297,36.9171049 111.023673,36.9171049 111.558788,36.7151515 C111.808825,36.6153278 112.031523,36.4574449 112.208485,36.2545455 L112.678788,36.7660606 C112.42612,37.0118031 112.125812,37.2032086 111.796364,37.3284848 C111.450682,37.4573237 111.084021,37.5206262 110.715152,37.5151515 C110.340624,37.5196071 109.968439,37.4555223 109.61697,37.3260606 C109.287573,37.2018112 108.987221,37.011203 108.734545,36.7660606 C108.461018,36.5019029 108.246247,36.1830515 108.104242,35.830303 C107.816472,35.0879217 107.816472,34.2648055 108.104242,33.5224242 C108.245502,33.1699884 108.460394,32.8517816 108.734545,32.5890909 C108.984909,32.3416244 109.284814,32.1499495 109.614545,32.0266667 C109.966692,31.8965928 110.339784,31.8324932 110.715152,31.8375758 C111.075758,31.8335594 111.434288,31.8926308 111.774545,32.0121212 C112.09132,32.1289753 112.382072,32.3068854 112.630303,32.5357576 L112.172121,33.0448485 Z" fill="#212121" fill-rule="nonzero" transform="translate(3 2)"></path>
    <path fill="#212121" fill-rule="nonzero" d="M114.380606 37.3939394L114.380606 31.929697 115.090909 31.929697 115.090909 36.729697 116.972121 36.729697 116.972121 37.3939394z" transform="translate(3 2)"></path>
    <path d="M120.882424,36.8557576 C121.163071,36.8593579 121.44188,36.8100111 121.704242,36.710303 C121.94978,36.6143816 122.172082,36.4672823 122.356364,36.2787879 C122.561383,36.0716837 122.720763,35.8239432 122.824242,35.5515152 C123.037609,34.9767382 123.037609,34.344474 122.824242,33.769697 C122.714867,33.4962424 122.549746,33.2485606 122.339394,33.0424242 C122.153417,32.8531137 121.929537,32.7052373 121.682424,32.6084848 C121.42419,32.5090954 121.149408,32.4597333 120.872727,32.4630303 C120.596628,32.4599165 120.322522,32.5101279 120.065455,32.6109091 C119.823339,32.7090677 119.604491,32.8568935 119.42303,33.0448485 C119.21911,33.2528318 119.059887,33.5003286 118.955152,33.7721212 C118.74175,34.350228 118.74175,34.9855296 118.955152,35.5636364 C119.059517,35.8356167 119.218785,36.0831848 119.42303,36.2909091 C119.60859,36.4778512 119.830543,36.6247197 120.075152,36.7224242 C120.332449,36.8221436 120.606503,36.8715226 120.882424,36.8678788 L120.882424,36.8557576 Z M120.882424,37.5006061 C120.509701,37.5048705 120.139285,37.4416286 119.789091,37.3139394 C119.458251,37.1866188 119.157081,36.9927149 118.904242,36.7442424 C118.630938,36.4798977 118.416201,36.1610968 118.273939,35.8084848 C117.985297,35.0704502 117.985297,34.2507619 118.273939,33.5127273 C118.417904,33.1591234 118.634256,32.8395503 118.909091,32.5745455 C119.159424,32.3282119 119.458287,32.1366758 119.786667,32.0121212 C120.492293,31.7611803 121.262859,31.7611803 121.968485,32.0121212 C122.297318,32.1371968 122.596872,32.3286473 122.848485,32.5745455 C123.12332,32.8395503 123.339671,33.1591234 123.483636,33.5127273 C123.76968,34.2512497 123.76968,35.0699625 123.483636,35.8084848 C123.341375,36.1610968 123.126638,36.4798977 122.853333,36.7442424 C122.600067,36.9921789 122.299014,37.1860073 121.968485,37.3139394 C121.622902,37.4400103 121.257549,37.5032287 120.889697,37.5006061 L120.882424,37.5006061 Z" fill="#212121" fill-rule="nonzero" transform="translate(3 2)"></path>
    <path d="M126.232727,31.929697 L126.232727,35.2969697 C126.206024,35.711594 126.334809,36.1212869 126.593939,36.4460606 C127.167479,36.9806308 128.056764,36.9806308 128.630303,36.4460606 C128.885141,36.118426 129.011062,35.7087528 128.984242,35.2945455 L128.984242,31.929697 L129.699394,31.929697 L129.699394,35.3406061 C129.727834,35.9198939 129.521589,36.4861942 129.127273,36.9115152 C128.270715,37.7016908 126.952534,37.7069509 126.089697,36.9236364 C125.694021,36.4990003 125.486808,35.9324447 125.515152,35.3527273 L125.515152,31.929697 L126.232727,31.929697 Z" fill="#212121" fill-rule="nonzero" transform="translate(3 2)"></path>
    <path d="M132.446061,32.5745455 L132.446061,36.7515152 L132.967273,36.7515152 C133.731717,36.7515152 134.307879,36.5753535 134.695758,36.2230303 C135.081212,35.8715152 135.277576,35.350303 135.277576,34.6618182 C135.277576,33.9733333 135.081212,33.449697 134.695758,33.1006061 C134.310303,32.7515152 133.726061,32.5745455 132.967273,32.5745455 L132.446061,32.5745455 Z M132.860606,31.929697 C133.883636,31.929697 134.662626,32.1616162 135.197576,32.6254545 C135.730909,33.0884848 135.997576,33.769697 135.997576,34.6618182 C135.997576,35.5539394 135.730909,36.2327273 135.197576,36.6957576 C134.664242,37.1587879 133.883636,37.3939394 132.860606,37.3939394 L131.728485,37.3939394 L131.728485,31.929697 L132.860606,31.929697 Z" fill="#212121" fill-rule="nonzero" transform="translate(3 2)"></path>
    <path fill="#534EF2" d="M30.8290909 33.28L41.8327273 33.28 30.8290909 44.2836364z" transform="translate(3 2)"></path>
    <path fill="#625DF5" d="M22.9454545 25.5490909L39.1030303 25.5490909 22.9454545 41.7042424z" transform="translate(3 2)"></path>
    <path d="M21.1006061,0.242424242 C32.4810191,0.242424242 41.7066667,9.46807182 41.7066667,20.8484848 C41.7066667,21.4812121 41.6775758,22.1042424 41.6218182,22.7224242 L32.8048485,22.7224242 C33.581132,17.8747774 31.2890203,13.0502123 27.0406971,10.5897153 C22.7923739,8.12921829 17.4669772,8.54195897 13.6485081,11.6276664 C9.83003909,14.7133737 8.3086828,19.8334987 9.82263522,24.5036426 C11.3365876,29.1737865 15.572555,32.4275206 20.4751515,32.6860606 L20.4751515,41.4545455 C9.09473849,41.281831 0.00910367823,31.9161706 0.181818182,20.5357576 C0.354532685,9.15534455 9.72019303,0.0697097388 21.1006061,0.242424242 Z" fill="#625DF5" transform="translate(3 2)"></path>
  </g>
</svg>