<svg xmlns="http://www.w3.org/2000/svg" fill="none" viewBox="0 0 15 14" class="design-iconfont" width="128" height="119.46666666666667">
  <path fill-rule="evenodd" clip-rule="evenodd" d="M7.31787 0C3.45179 0 0.317871 3.13392 0.317871 7C0.317871 10.8661 3.45179 14 7.31787 14C11.184 14 14.3179 10.8661 14.3179 7C14.3179 3.13392 11.184 0 7.31787 0V0ZM11.5493 5.1443L5.86449 10.6772C5.69342 10.8483 5.41561 10.8483 5.24455 10.6772L3.0727 8.60119C2.90163 8.43013 2.90163 8.15232 3.0727 7.98125V7.98125C3.24376 7.81019 3.52157 7.81019 3.69264 7.98125L5.5552 9.74802L10.9294 4.52436C11.1005 4.35329 11.3783 4.35329 11.5493 4.52436V4.52436C11.7204 4.69543 11.7204 4.97324 11.5493 5.1443V5.1443Z" fill="#40841E"></path>
</svg>